<svg xmlns="http://www.w3.org/2000/svg" fill="none" viewBox="0 0 200 200" stroke-width=".75" height="400" width="400"><g id="Work-About-Us-About-our-team-01"><g id="color 2"><path id="Vector" fill="#fecfc4" d="M176.816 88.508C174.542 88.508 173.686 77.437 175.961 77.26C163.661 78.569 151.032 80.581 142.447 79.217C139.433 82.9337 136.974 87.0681 135.147 91.491C133.987 87.3279 133.565 82.9937 133.9 78.685C132.267 78.552 114.445 66.735 106.941 62.346C105.314 63.4466 103.928 64.8662 102.867 66.5187C101.805 68.1711 101.091 70.022 100.766 71.959L127.066 87.959L129.137 84.976C128.653 86.1671 128.382 87.4341 128.337 88.719C128.261 91.303 129.097 95.083 132.212 101.719C135.252 102.631 140.212 101.225 143.992 99.04C143.821 96.665 144.98 93.758 145.854 91.327C145.183 90.8355 144.478 90.3911 143.745 89.997C154.891 90.731 165.379 89.9 176.816 88.508Z"></path><path id="Vector_2" fill="#fecfc4" d="M84.158 105.968C78.3814 105.516 72.5856 105.357 66.793 105.493C67.1546 104.262 67.3714 102.993 67.439 101.712C62.689 102.947 58.091 102.985 51.974 102.112V102.036C49.132 103.916 46.651 110.582 48.433 115.482L43.5 125.9L29.441 116.93C25.204 119.571 23.076 122.953 21.518 128.14L39.244 140.28C40.4331 141.096 41.7815 141.651 43.2004 141.908C44.6194 142.166 46.0768 142.12 47.4767 141.773C48.8766 141.427 50.1873 140.788 51.3225 139.898C52.4577 139.009 53.3917 137.889 54.063 136.613L59.725 125.841L52.579 120.383C53.6271 120.995 54.7524 121.463 55.925 121.775C61.758 123.39 70.288 122.744 76.025 122.041C74.3377 128.753 73.0187 135.552 72.074 142.408C75.6915 144.842 80.1027 145.8 84.404 145.087C87.6174 136.081 90.3325 126.905 92.537 117.6C92.8662 116.276 92.9031 114.896 92.6451 113.556C92.3871 112.217 91.8404 110.949 91.043 109.842C90.2455 108.735 89.2166 107.815 88.0276 107.146C86.8386 106.477 85.5181 106.075 84.158 105.968Z"></path><path id="Vector_3" fill="#fecfc4" d="M167.355 47.032C167.212 46.8878 167.042 46.7734 166.854 46.6953C166.667 46.6172 166.466 46.577 166.262 46.577C166.059 46.577 165.858 46.6172 165.671 46.6953C165.483 46.7734 165.313 46.8878 165.17 47.032L164.77 47.432L164.37 47.032C164.08 46.7423 163.687 46.5795 163.277 46.5796C162.867 46.5797 162.474 46.7426 162.184 47.0325C161.895 47.3224 161.732 47.7155 161.732 48.1254C161.732 48.5352 161.895 48.9283 162.185 49.218L164.785 51.802L167.35 49.218C167.495 49.0753 167.61 48.9054 167.689 48.7179C167.767 48.5305 167.808 48.3293 167.808 48.126C167.809 47.9228 167.769 47.7214 167.691 47.5336C167.613 47.3458 167.499 47.1754 167.355 47.032Z"></path><path id="Vector_4" fill="#fecfc4" d="M58.566 158.177L55.925 157.778L54.747 155.403L53.569 157.778L50.929 158.177L52.848 160.02L52.392 162.642L54.747 161.407L57.103 162.642L56.647 160.02L58.566 158.177Z"></path></g><g id="color 1"><path id="Vector_5" fill="#6153bd" d="M137.925 74.9L135.925 76.8C136.11 76.2726 136.225 75.7233 136.267 75.166C136.828 75.1391 137.384 75.0499 137.925 74.9Z"></path><path id="Vector_6" fill="#6153bd" d="M146.247 90.123C146.114 90.503 145.981 90.902 145.829 91.323C145.158 90.8314 144.453 90.387 143.72 89.993C144.575 90.028 145.411 90.085 146.247 90.123Z"></path><path id="Vector_7" fill="#6153bd" d="M161.712 58.584C158.6 56 150.161 63.258 150.161 63.258C151.718 55.582 140.319 62.158 136.481 65.899C138.457 64.322 140.034 67.741 139.863 69.679C139.863 70.136 140.11 70.231 140.813 69.737C142.276 68.673 143.321 71.2 140.566 72.377C140.381 72.5771 140.245 72.8164 140.166 73.077C139.661 74.5109 139.628 76.0688 140.071 77.523C152.858 74.905 164.809 61.149 161.712 58.584Z"></path><path id="Vector_8" fill="#6153bd" d="M139.749 116.873L138.229 118.184L136.899 112.541L139.749 116.873Z"></path><path id="Vector_9" fill="#6153bd" d="M98.008 28.451C96.4851 28.451 94.9964 28.9026 93.7301 29.7487C92.4639 30.5948 91.4769 31.7973 90.8941 33.2043C90.3113 34.6113 90.1589 36.1595 90.456 37.6532C90.7531 39.1468 91.4864 40.5189 92.5633 41.5957C93.6402 42.6726 95.0122 43.4059 96.5058 43.703C97.9995 44.0002 99.5477 43.8477 100.955 43.2649C102.362 42.6821 103.564 41.6951 104.41 40.4289C105.256 39.1626 105.708 37.6739 105.708 36.151C105.71 35.1393 105.512 34.1372 105.126 33.2022C104.739 32.2671 104.172 31.4175 103.457 30.7022C102.741 29.9868 101.892 29.4197 100.957 29.0334C100.022 28.6471 99.0197 28.4492 98.008 28.451ZM98.198 40.839C98.198 40.8894 98.178 40.9377 98.1424 40.9734C98.1067 41.009 98.0584 41.029 98.008 41.029C97.9827 41.0305 97.9573 41.0265 97.9336 41.0175C97.9099 41.0085 97.8884 40.9945 97.8704 40.9766C97.8525 40.9586 97.8386 40.9371 97.8295 40.9134C97.8205 40.8897 97.8166 40.8643 97.818 40.839V34.873C97.8183 34.8227 97.8384 34.7745 97.874 34.7389C97.9095 34.7034 97.9577 34.6833 98.008 34.683C98.0333 34.6815 98.0587 34.6855 98.0824 34.6945C98.1061 34.7035 98.1277 34.7175 98.1456 34.7354C98.1635 34.7534 98.1775 34.7749 98.1865 34.7986C98.1955 34.8223 98.1995 34.8477 98.198 34.873V40.839ZM97.476 31.986C97.482 31.8464 97.5417 31.7145 97.6426 31.6179C97.7435 31.5212 97.8778 31.4673 98.0175 31.4673C98.1572 31.4673 98.2916 31.5212 98.3924 31.6179C98.4933 31.7145 98.553 31.8464 98.559 31.986C98.553 32.1256 98.4933 32.2575 98.3924 32.3541C98.2916 32.4508 98.1572 32.5047 98.0175 32.5047C97.8778 32.5047 97.7435 32.4508 97.6426 32.3541C97.5417 32.2575 97.482 32.1256 97.476 31.986Z"></path><path id="Vector_10" fill="#6153bd" d="M52.467 120.312L59.725 125.841L61.416 122.649C58.293 122.569 55.2306 121.769 52.467 120.312Z"></path><path id="Vector_11" fill="#6153bd" d="M58.737 78.438L56.457 76.9C57.1125 76.9788 57.7734 77.0043 58.433 76.976C58.4851 77.4723 58.5869 77.9621 58.737 78.438Z"></path><path id="Vector_12" fill="#6153bd" d="M129.11 84.974C128.626 86.1651 128.355 87.4321 128.31 88.717L127.037 87.938L129.11 84.974Z"></path><path id="Vector_13" fill="#6153bd" d="M68.465 85.107C68.6344 85.9352 68.755 86.7726 68.826 87.615C69.187 87.444 69.586 87.235 69.985 87.026L68.465 85.107Z"></path><path id="Vector_14" fill="#6153bd" d="M73.651 143.966C73.215 145.22 72.663 146.474 72.284 147.575C72.5789 148.839 73.0385 150.059 73.651 151.204C75.57 154.757 77.489 161.73 79.009 163.478C79.845 160.989 80.738 154.739 81.327 151.223C78.3615 149.274 75.763 146.818 73.651 143.966Z"></path><path id="Vector_15" fill="#6153bd" d="M23.076 115.429C21.7799 115.372 20.4821 115.494 19.219 115.79C15.267 116.702 8.02901 116.702 5.95801 117.709C8.12401 119.191 13.918 121.718 17.148 123.2C19.8182 120.845 22.8873 118.985 26.211 117.709C25.09 116.949 24.026 116.094 23.076 115.429Z"></path><path id="Vector_16" fill="#6153bd" d="M56.837 66.3C56.21 65.274 54.837 65.331 54.975 66.11C54.121 65.35 52.639 65.71 52.809 66.585C51.784 65.749 50.587 66.414 50.833 67.212C49.941 66.528 48.972 67.212 49.276 68.029C48.003 67.478 46.939 68.429 48.44 69.929C49.086 70.575 51.897 72.664 53.474 75.305C53.571 74.9251 53.562 74.526 53.4482 74.1508C53.3343 73.7757 53.1198 73.4389 52.828 73.177C51.27 71.999 52.334 70.594 53.322 71.562C54.196 72.417 53.912 71.162 53.284 70.042C53.4141 70.1542 53.5704 70.2319 53.7384 70.2678C53.9064 70.3038 54.0808 70.2969 54.2454 70.2478C54.4101 70.1987 54.5597 70.109 54.6806 69.9868C54.8014 69.8647 54.8896 69.7142 54.937 69.549C55.0616 69.6431 55.2052 69.709 55.3578 69.7419C55.5105 69.7748 55.6684 69.7741 55.8208 69.7397C55.9731 69.7053 56.1161 69.6382 56.2398 69.5429C56.3635 69.4476 56.4649 69.3265 56.537 69.188C57.237 69.681 58.19 69.378 58.228 68.637C57.806 67.913 57.331 67.115 56.837 66.3Z"></path><path id="Vector_17" fill="#6153bd" d="M51.9 91.68L50.514 93.466C50.324 92.726 50.134 92.003 49.925 91.301C50.568 91.415 51.9 91.68 51.9 91.68Z"></path><path id="Vector_18" fill="#6153bd" d="M32.518 86.988C32.5114 87.1548 32.4406 87.3126 32.3202 87.4283C32.1999 87.544 32.0394 87.6086 31.8725 87.6086C31.7056 87.6086 31.5451 87.544 31.4248 87.4283C31.3045 87.3126 31.2336 87.1548 31.227 86.988C31.2336 86.8212 31.3045 86.6634 31.4248 86.5477C31.5451 86.432 31.7056 86.3674 31.8725 86.3674C32.0394 86.3674 32.1999 86.432 32.3202 86.5477C32.4406 86.6634 32.5114 86.8212 32.518 86.988Z"></path><path id="Vector_19" fill="#6153bd" d="M41.182 81.288C41.182 81.4593 41.114 81.6236 40.9928 81.7448C40.8717 81.8659 40.7073 81.934 40.536 81.934C40.3647 81.934 40.2004 81.8659 40.0792 81.7448C39.9581 81.6236 39.89 81.4593 39.89 81.288C39.89 81.1167 39.9581 80.9524 40.0792 80.8312C40.2004 80.7101 40.3647 80.642 40.536 80.642C40.7073 80.642 40.8717 80.7101 40.9928 80.8312C41.114 80.9524 41.182 81.1167 41.182 81.288Z"></path><path id="Vector_20" fill="#6153bd" d="M49.485 87.634C49.485 87.8053 49.4169 87.9696 49.2958 88.0908C49.1747 88.2119 49.0103 88.28 48.839 88.28C48.6677 88.28 48.5034 88.2119 48.3822 88.0908C48.2611 87.9696 48.193 87.8053 48.193 87.634C48.193 87.4627 48.2611 87.2984 48.3822 87.1772C48.5034 87.0561 48.6677 86.988 48.839 86.988C49.0103 86.988 49.1747 87.0561 49.2958 87.1772C49.4169 87.2984 49.485 87.4627 49.485 87.634Z"></path><path id="Vector_21" fill="#6153bd" d="M60.808 89.439C60.808 89.6103 60.7399 89.7746 60.6188 89.8958C60.4976 90.0169 60.3333 90.085 60.162 90.085C59.9907 90.085 59.8264 90.0169 59.7052 89.8958C59.5841 89.7746 59.516 89.6103 59.516 89.439C59.516 89.2677 59.5841 89.1034 59.7052 88.9822C59.8264 88.8611 59.9907 88.793 60.162 88.793C60.3333 88.793 60.4976 88.8611 60.6188 88.9822C60.7399 89.1034 60.808 89.2677 60.808 89.439Z"></path><path id="Vector_22" fill="#6153bd" d="M66.7 79.559C66.7 79.7303 66.6319 79.8946 66.5108 80.0158C66.3896 80.1369 66.2253 80.205 66.054 80.205C65.8827 80.205 65.7184 80.1369 65.5972 80.0158C65.4761 79.8946 65.408 79.7303 65.408 79.559C65.408 79.3877 65.4761 79.2234 65.5972 79.1022C65.7184 78.9811 65.8827 78.913 66.054 78.913C66.2253 78.913 66.3896 78.9811 66.5108 79.1022C66.6319 79.2234 66.7 79.3877 66.7 79.559Z"></path><path id="Vector_23" fill="#6153bd" d="M77.717 79.426C77.717 79.5973 77.649 79.7616 77.5278 79.8828C77.4067 80.0039 77.2423 80.072 77.071 80.072C76.8997 80.072 76.7354 80.0039 76.6142 79.8828C76.4931 79.7616 76.425 79.5973 76.425 79.426C76.425 79.2547 76.4931 79.0904 76.6142 78.9692C76.7354 78.8481 76.8997 78.78 77.071 78.78C77.2423 78.78 77.4067 78.8481 77.5278 78.9692C77.649 79.0904 77.717 79.2547 77.717 79.426Z"></path><path id="Vector_24" fill="#6153bd" d="M81.441 70.668C81.441 70.8393 81.373 71.0036 81.2518 71.1248C81.1307 71.2459 80.9663 71.314 80.795 71.314C80.6237 71.314 80.4594 71.2459 80.3382 71.1248C80.2171 71.0036 80.149 70.8393 80.149 70.668C80.149 70.4967 80.2171 70.3324 80.3382 70.2112C80.4594 70.0901 80.6237 70.022 80.795 70.022C80.9663 70.022 81.1307 70.0901 81.2518 70.2112C81.373 70.3324 81.441 70.4967 81.441 70.668Z"></path><path id="Vector_25" fill="#6153bd" d="M56.039 98.311C56.039 98.4823 55.9709 98.6467 55.8498 98.7678C55.7287 98.8889 55.5643 98.957 55.393 98.957C55.2217 98.957 55.0574 98.8889 54.9362 98.7678C54.8151 98.6467 54.747 98.4823 54.747 98.311C54.747 98.1397 54.8151 97.9754 54.9362 97.8542C55.0574 97.7331 55.2217 97.665 55.393 97.665C55.5643 97.665 55.7287 97.7331 55.8498 97.8542C55.9709 97.9754 56.039 98.1397 56.039 98.311Z"></path><path id="Vector_26" fill="#6153bd" d="M66.052 97.665C66.052 97.8363 65.9839 98.0006 65.8628 98.1218C65.7417 98.2429 65.5773 98.311 65.406 98.311C65.2347 98.311 65.0704 98.2429 64.9492 98.1218C64.8281 98.0006 64.76 97.8363 64.76 97.665C64.76 97.4937 64.8281 97.3293 64.9492 97.2082C65.0704 97.087 65.2347 97.019 65.406 97.019C65.5773 97.019 65.7417 97.087 65.8628 97.2082C65.9839 97.3293 66.052 97.4937 66.052 97.665Z"></path><path id="Vector_27" fill="#6153bd" d="M177.139 78.362C176.474 78.4 175.296 78.457 175.03 78.476C175.524 76.9 176.4 76.88 177.139 78.362Z"></path><path id="Vector_28" fill="#6153bd" d="M177.747 87.482C177.272 88.774 176.493 88.831 175.828 87.634C176.379 87.6 177.044 87.539 177.747 87.482Z"></path><path id="Vector_29" fill="#6153bd" d="M107.85 65.9C107.85 66.0713 107.782 66.2356 107.661 66.3568C107.54 66.4779 107.375 66.546 107.204 66.546C107.033 66.546 106.868 66.4779 106.747 66.3568C106.626 66.2356 106.558 66.0713 106.558 65.9C106.558 65.7287 106.626 65.5644 106.747 65.4432C106.868 65.3221 107.033 65.254 107.204 65.254C107.375 65.254 107.54 65.3221 107.661 65.4432C107.782 65.5644 107.85 65.7287 107.85 65.9Z"></path><path id="Vector_30" fill="#6153bd" d="M172.693 80.851C172.686 81.0178 172.616 81.1756 172.495 81.2913C172.375 81.407 172.214 81.4716 172.048 81.4716C171.881 81.4716 171.72 81.407 171.6 81.2913C171.479 81.1756 171.409 81.0178 171.402 80.851C171.409 80.6842 171.479 80.5264 171.6 80.4107C171.72 80.295 171.881 80.2304 172.048 80.2304C172.214 80.2304 172.375 80.295 172.495 80.4107C172.616 80.5264 172.686 80.6842 172.693 80.851Z"></path><path id="Vector_31" fill="#6153bd" d="M157.513 123.447C157.507 122.355 157.444 121.264 157.323 120.179L162.814 115.087L157.513 123.447Z"></path></g><g id="outlines"><path id="Vector_32" stroke="#120071" stroke-linecap="round" stroke-linejoin="round" d="M104.088 149.286C96.666 150.213 89.1302 149.413 82.068 146.949"></path><path id="Vector_33" stroke="#120071" stroke-linecap="round" stroke-linejoin="round" d="M142.143 120.5C137.564 131.224 129.246 139.92 118.736 144.971"></path><path id="Vector_34" stroke="#120071" stroke-linecap="round" stroke-linejoin="round" d="M145.183 93.105C145.604 95.3756 145.851 97.6749 145.924 99.983"></path><path id="Vector_35" stroke="#120071" stroke-linecap="round" stroke-linejoin="round" d="M105.513 54.347C116.602 56.0899 126.724 61.6793 134.106 70.136"></path><path id="Vector_36" stroke="#120071" stroke-linecap="round" stroke-linejoin="round" d="M93.98 53.929C96.1423 53.7553 98.3136 53.7235 100.48 53.834C100.86 53.854 101.259 53.872 101.639 53.91"></path><path id="Vector_37" stroke="#120071" stroke-linecap="round" stroke-linejoin="round" d="M60.086 72.339C67.1606 63.2055 77.2935 56.9316 88.623 54.67"></path><path id="Vector_38" stroke="#120071" stroke-linecap="round" stroke-linejoin="round" d="M50.112 104.068C50.0344 102.46 50.0407 100.849 50.131 99.242C50.2222 97.5304 50.3997 95.8246 50.663 94.131"></path><path id="Vector_39" stroke="#120071" stroke-linecap="round" stroke-linejoin="round" d="M72.169 142.123C66.6688 138.596 61.9437 133.988 58.281 128.577"></path><path id="Vector_40" stroke="#120071" stroke-linecap="round" stroke-linejoin="round" d="M136.272 75.151C136.825 75.1343 137.373 75.0514 137.906 74.904L135.93 76.785"></path><path id="Vector_41" stroke="#120071" stroke-linecap="round" stroke-linejoin="round" d="M185.784 80.3L189.527 78.59C191.901 77.507 191.927 76.352 189.09 77.26C188.918 77.315 184.701 78.569 184.036 78.666C183.523 78.741 182.636 78.817 182.536 78.476C182.155 77.176 183.736 73.664 182.631 73.308C181.91 73.077 180.678 75.343 179.895 76.975C179.347 78.117 178.395 78.305 177.14 78.362"></path><path id="Vector_42" stroke="#120071" stroke-linecap="round" stroke-linejoin="round" d="M185.1 80.376C185.1 80.376 190.8 79.676 191.18 79.616C194.142 79.185 193.935 80.303 191.408 81.003C188.995 81.671 186.088 82.503 186.088 82.503"></path><path id="Vector_43" stroke="#120071" stroke-linecap="round" stroke-linejoin="round" d="M185.1 82.485C186.97 82.5408 188.841 82.4901 190.705 82.333C193.687 82.1 193.364 83.093 190.838 83.72C189.28 84.1458 187.692 84.457 186.088 84.651"></path><path id="Vector_44" stroke="#120071" stroke-linecap="round" stroke-linejoin="round" d="M177.747 87.482C177.747 87.482 181.87 87.212 182.668 87.14C184.206 87 185.786 86.755 187.323 86.551C187.855 86.48 188.482 86.383 189.204 86.251C191.866 85.751 192.262 84.763 189.242 84.845C187.621 84.8836 186.001 84.7305 184.416 84.389"></path><path id="Vector_45" stroke="#120071" stroke-linecap="round" stroke-linejoin="round" d="M184.986 79.464C185.275 81.8306 184.759 84.2255 183.523 86.264"></path><path id="Vector_46" stroke="#120071" stroke-linecap="round" stroke-linejoin="round" d="M182.744 79.426C182.298 80.6051 181.612 81.6784 180.728 82.578C179.845 83.4775 178.785 84.1834 177.614 84.651"></path><path id="Vector_47" stroke="#120071" stroke-linecap="round" stroke-linejoin="round" d="M146.259 90.131C146.126 90.511 145.993 90.91 145.841 91.331C144.853 90.666 144.015 90.236 143.732 90.001C144.587 90.036 145.423 90.093 146.259 90.131Z"></path><path id="Vector_48" stroke="#120071" stroke-linecap="round" stroke-linejoin="round" d="M127.039 87.957L129.11 84.974C128.572 86.1493 128.292 87.4264 128.29 88.719"></path><path id="Vector_49" stroke="#120071" stroke-linecap="round" stroke-linejoin="round" d="M133.9 78.685C134.587 78.685 135.475 78.095 135.933 76.785C136.117 76.2575 136.232 75.7082 136.275 75.151C134.489 75.17 132.195 74.251 134.793 68.407C135.352 67.151 136.437 65.23 137.785 65.524C139.096 65.811 139.996 68.132 139.885 69.624C139.84 70.265 140.285 70.108 140.812 69.733C142.284 68.681 143.32 71.195 140.565 72.373C140.382 72.574 140.245 72.813 140.165 73.073C139.454 76.073 139.429 78.544 142.445 79.229"></path><path id="Vector_50" stroke="#120071" stroke-linecap="round" stroke-linejoin="round" d="M136.5 65.9C140.338 62.157 151.738 55.583 150.18 63.259C150.18 63.259 158.614 56.002 161.731 58.585C164.831 61.151 152.896 74.905 140.11 77.527"></path><path id="Vector_51" stroke="#120071" stroke-linecap="round" stroke-linejoin="round" d="M176.816 88.508C174.567 88.508 173.685 77.437 175.961 77.26C163.761 78.56 151.109 80.595 142.447 79.217C139.433 82.9337 136.974 87.0681 135.147 91.491C133.987 87.3279 133.565 82.9937 133.9 78.685C132.267 78.552 114.445 66.735 106.941 62.346C105.314 63.4466 103.928 64.8662 102.867 66.5187C101.805 68.1711 101.091 70.022 100.766 71.959L128.293 88.719C128.286 89.026 128.293 89.348 128.31 89.692C128.451 92.24 129.426 95.869 132.171 101.712C135.566 102.725 140.828 100.86 143.989 99.033C143.789 96.256 145.407 92.753 146.262 90.133C156.483 90.6 166.244 89.79 176.816 88.508Z"></path><path id="Vector_52" stroke="#120071" stroke-linecap="round" stroke-linejoin="round" d="M132.187 101.712L115.772 119.286C112.807 122.453 110.644 126.284 109.465 130.458L103.328 151.907C105.022 153.403 107.052 154.467 109.247 155.007C111.441 155.547 113.734 155.547 115.928 155.007L122.228 132.185C140.871 115.867 137.677 118.656 139.745 116.872L149.91 132.356C150.507 133.264 151.294 134.031 152.216 134.606C153.139 135.18 154.174 135.548 155.253 135.683C156.331 135.819 157.425 135.719 158.461 135.39C159.497 135.062 160.449 134.513 161.252 133.781L180.46 116.245C179.955 114.067 178.944 112.039 177.509 110.325C176.075 108.611 174.256 107.259 172.201 106.379L157.319 120.179C157.319 120.179 154.754 103.251 143.963 99.033"></path><path id="Vector_53" stroke="#120071" stroke-linecap="round" stroke-linejoin="round" d="M138.229 118.184L136.899 112.541L139.749 116.873"></path><path id="Vector_54" stroke="#120071" stroke-linecap="round" stroke-linejoin="round" d="M104.525 152.819C103.776 156.849 102.63 160.794 101.105 164.599C99.658 167.865 98.524 170.79 98.939 171.287C100.393 173.026 105.339 165.514 109.009 163.592C109.883 163.158 110.665 162.558 111.309 161.825C112.598 160.303 111.878 158.538 113.379 155.365"></path><path id="Vector_55" stroke="#120071" stroke-linecap="round" stroke-linejoin="round" d="M179.685 113.909C182.831 111.231 186.13 108.738 189.565 106.443C192.547 104.466 195.074 102.605 194.998 101.978C194.729 99.736 186.488 103.369 182.383 103.023C181.407 102.921 180.421 103.005 179.476 103.27C177.576 103.844 177.329 105.645 174.346 107.526"></path><path id="Vector_56" stroke="#120071" stroke-linecap="round" stroke-linejoin="round" d="M100.364 60.18C100.364 55.98 103.63 48.15 104.905 47.508C104.939 47.4926 104.976 47.4861 105.012 47.4894C105.049 47.4927 105.084 47.5055 105.115 47.5266C105.145 47.5478 105.169 47.5764 105.185 47.6098C105.201 47.6432 105.208 47.6802 105.205 47.717C104.768 52.203 101.858 59.865 105.914 63.092"></path><path id="Vector_57" stroke="#120071" stroke-linecap="round" stroke-linejoin="round" d="M101.257 70.041C99.794 69.053 97.73 67.341 97.799 65.671C97.99 61.055 97.961 58.888 97.97 57.064C97.977 55.715 99.038 55.676 99.756 58.014C100.386 60.065 101.048 62.954 101.048 62.954"></path><path id="Vector_58" stroke="#120071" stroke-linecap="round" stroke-linejoin="round" d="M104.316 53.036C104.716 52.371 105.149 51.686 105.323 51.403C106.593 49.337 107.103 49.843 106.995 50.225C106.572 51.719 105.551 53.967 105.209 55.354C104.699 57.395 103.831 60.244 105.449 62.668"></path><path id="Vector_59" stroke="#120071" stroke-linecap="round" stroke-linejoin="round" d="M84.918 120.6C84.918 120.6 81.137 121.417 76.026 122.044"></path><path id="Vector_60" stroke="#120071" stroke-linecap="round" stroke-linejoin="round" d="M50.055 104.163C50.5488 103.34 51.2007 102.623 51.973 102.054V102.13C58.091 103.004 62.689 102.966 67.439 101.73C67.3714 103.011 67.1546 104.28 66.793 105.511C72.5677 105.378 78.356 105.536 84.158 105.986C85.5166 106.091 86.8358 106.491 88.0237 107.159C89.2116 107.826 90.2394 108.745 91.0354 109.851C91.8314 110.957 92.3763 112.224 92.6322 113.562C92.8881 114.9 92.8488 116.278 92.517 117.6C90.3166 126.907 87.6021 136.085 84.386 145.092C80.0844 145.805 75.6728 144.847 72.055 142.413C73.0005 135.557 74.3198 128.758 76.007 122.046C70.27 122.746 61.741 123.389 55.907 121.78C52.45 120.827 49.632 118.837 48.407 115.453C47.008 111.613 48.268 106.955 50.055 104.163Z"></path><path id="Vector_61" stroke="#120071" stroke-linecap="round" stroke-linejoin="round" d="M66.812 105.531C65.862 105.55 64.931 105.588 64 105.626"></path><path id="Vector_62" stroke="#120071" stroke-linecap="round" stroke-linejoin="round" d="M61.4 122.648L54.06 136.613C53.3887 137.889 52.4547 139.009 51.3195 139.898C50.1843 140.788 48.8736 141.427 47.4737 141.773C46.0738 142.12 44.6164 142.166 43.1974 141.908C41.7785 141.651 40.4301 141.096 39.241 140.28L21.518 128.14C23.078 122.947 25.209 119.563 29.456 116.921L43.481 125.9L48.421 115.45"></path><path id="Vector_63" stroke="#120071" stroke-linecap="round" stroke-linejoin="round" d="M52.486 120.312L59.725 125.841"></path><path id="Vector_64" stroke="#120071" stroke-linecap="round" stroke-linejoin="round" d="M58.737 78.438L56.457 76.88C57.1136 76.9535 57.7752 76.9725 58.435 76.937"></path><path id="Vector_65" stroke="#120071" stroke-linecap="round" stroke-linejoin="round" d="M62.993 78.913C62.651 79.122 62.309 79.313 61.967 79.521C61.5956 79.8128 61.136 79.9699 60.6637 79.9664C60.1913 79.963 59.7341 79.7992 59.367 79.502C58.7846 78.7719 58.4582 77.8707 58.438 76.937C61.494 76.758 61.681 74.703 58.227 68.616C58.191 68.7932 58.1086 68.9577 57.9883 69.0927C57.868 69.2276 57.714 69.3283 57.5421 69.3843C57.3701 69.4403 57.1864 69.4497 57.0097 69.4115C56.8329 69.3734 56.6695 69.289 56.536 69.167C56.4677 69.3092 56.3681 69.4341 56.2447 69.5324C56.1213 69.6307 55.9772 69.6998 55.8233 69.7345C55.6694 69.7692 55.5097 69.7687 55.356 69.7329C55.2023 69.6972 55.0588 69.6271 54.936 69.528C54.8885 69.6931 54.8003 69.8435 54.6794 69.9656C54.5586 70.0877 54.409 70.1774 54.2445 70.2266C54.0799 70.2758 53.9056 70.2828 53.7376 70.2471C53.5696 70.2113 53.4133 70.1339 53.283 70.022C53.929 71.142 54.195 72.396 53.321 71.541C52.333 70.573 51.269 71.997 52.828 73.157C53.1198 73.4186 53.3343 73.7552 53.4482 74.1302C53.5621 74.5052 53.571 74.9043 53.474 75.284C54.3754 76.5989 54.7357 78.2104 54.48 79.784C54.309 80.584 53.169 81.209 51.78 80.848C53.437 83.825 56.847 86.568 60.163 85.396C63.812 84.111 62.993 78.913 62.993 78.913Z"></path><path id="Vector_66" stroke="#120071" stroke-linecap="round" stroke-linejoin="round" d="M86.6 63.3C91.293 59.751 91.478 52.247 91.478 46.866C91.478 46.695 91.724 46.466 91.857 46.566C93.044 47.338 94.623 55.339 94.243 59.549"></path><path id="Vector_67" stroke="#120071" stroke-linecap="round" stroke-linejoin="round" d="M91.985 69.68C93.3313 69.1378 94.4465 68.1435 95.139 66.868C96.5857 63.648 97.0921 60.0845 96.6 56.589C96.342 55.071 95.554 55.202 94.871 57.501C94.262 59.553 93.313 62.308 93.313 62.308"></path><path id="Vector_68" stroke="#120071" stroke-linecap="round" stroke-linejoin="round" d="M86.521 63.25C87.829 61.65 89.06 58.81 89.003 57.311C88.8495 55.6304 88.5571 53.9654 88.129 52.333C88.043 51.933 88.542 51.401 89.991 54.133"></path><path id="Vector_69" stroke="#120071" stroke-linecap="round" stroke-linejoin="round" d="M68.826 87.615C68.755 86.7726 68.6344 85.9352 68.465 85.107L69.963 87"></path><path id="Vector_70" stroke="#120071" stroke-linecap="round" stroke-linejoin="round" d="M67.458 101.731H67.477C68.294 96.905 69.187 92.022 68.826 87.615C76.413 83.635 86.056 75.92 92.026 70.668C92.703 69.991 90.332 66.993 89.68 66.224C89.011 65.435 86.395 62.53 85.472 62.992C78.4979 68.9874 70.9785 74.3176 63.012 78.913"></path><path id="Vector_71" stroke="#120071" stroke-linecap="round" stroke-linejoin="round" d="M82.467 145.334C81.9774 147.273 81.603 149.24 81.346 151.224C78.3729 149.277 75.773 146.812 73.67 143.947C73.7461 143.781 73.8096 143.61 73.86 143.434"></path><path id="Vector_72" stroke="#120071" stroke-linecap="round" stroke-linejoin="round" d="M73.651 151.2C73.0385 150.055 72.5789 148.835 72.284 147.571C71.9608 148.335 71.7909 149.155 71.784 149.985C72.023 151.168 72.4394 152.308 73.019 153.366C74.976 157.014 76.933 164.652 78.339 164.557C78.548 164.538 78.776 164.139 79.004 163.474C77.508 161.73 75.589 154.757 73.651 151.2Z"></path><path id="Vector_73" stroke="#120071" stroke-linecap="round" stroke-linejoin="round" d="M73.651 143.966C73.215 145.22 72.663 146.474 72.284 147.575C72.5789 148.839 73.0385 150.059 73.651 151.204C75.57 154.757 77.489 161.73 79.009 163.478C79.845 160.989 80.738 154.739 81.327 151.223C78.3615 149.274 75.763 146.818 73.651 143.966V143.966Z"></path><path id="Vector_74" stroke="#120071" stroke-linecap="round" stroke-linejoin="round" d="M22.335 125.727C20.6583 124.781 18.9262 123.937 17.148 123.2C19.8107 120.849 22.874 118.996 26.192 117.728C26.705 118.07 26.781 118.203 27.275 118.488"></path><path id="Vector_75" stroke="#120071" stroke-linecap="round" stroke-linejoin="round" d="M20.891 114.327C19.6864 114.237 18.4751 114.333 17.3 114.613C13.272 115.543 5.36899 115.391 5.09999 116.778C5.06199 116.987 5.38499 117.31 5.95499 117.709C8.02599 116.702 15.264 116.702 19.235 115.809C20.4979 115.512 21.7959 115.39 23.092 115.449C22.4418 114.93 21.693 114.548 20.891 114.327V114.327Z"></path><path id="Vector_76" stroke="#120071" stroke-linecap="round" stroke-linejoin="round" d="M23.076 115.429C21.7799 115.372 20.4821 115.494 19.219 115.79C15.267 116.702 8.02899 116.702 5.95799 117.709C8.12399 119.191 13.918 121.718 17.148 123.2C19.8182 120.845 22.8873 118.985 26.211 117.709C25.09 116.949 24.026 116.094 23.076 115.429Z"></path><path id="Vector_77" stroke="#120071" stroke-linecap="round" stroke-linejoin="round" d="M11.012 88.242C10.29 88.489 9.35799 88.772 8.41199 89.059C6.66299 89.587 6.01799 89.268 7.76599 88.071C9.41871 86.9488 11.2423 86.1018 13.166 85.563"></path><path id="Vector_78" stroke="#120071" stroke-linecap="round" stroke-linejoin="round" d="M14.906 83.359C14.3784 83.8742 13.9009 84.4384 13.48 85.044C12.7246 86.1757 12.2137 87.4526 11.98 88.793"></path><path id="Vector_79" stroke="#120071" stroke-linecap="round" stroke-linejoin="round" d="M10.347 86.608C4.01999 88.831 3.22599 87.794 8.52299 85.373C10.5668 84.4981 12.6944 83.834 14.873 83.391"></path><path id="Vector_80" stroke="#120071" stroke-linecap="round" stroke-linejoin="round" d="M22.738 88.279C20.091 88.131 14.443 89.118 10.347 90.479C8.56099 91.068 7.60599 90.679 9.58699 89.187C10.4216 88.5631 11.316 88.0235 12.257 87.576"></path><path id="Vector_81" stroke="#120071" stroke-linecap="round" stroke-linejoin="round" d="M11.771 84.157C9.64399 84.651 4.79599 84.833 12.341 82.39C13.519 82.009 14.941 81.69 16.274 81.402C16.3493 80.9066 16.2626 80.4002 16.027 79.958C15.227 78.618 15.497 78.074 16.806 78.875C18.4673 80.0056 20.4399 80.5901 22.449 80.547"></path><path id="Vector_82" stroke="#120071" stroke-linecap="round" stroke-linejoin="round" d="M16.274 81.4C16.2656 81.9016 16.3608 82.3996 16.5537 82.8628C16.7466 83.3259 17.0331 83.7443 17.3952 84.0916C17.7572 84.4389 18.1871 84.7077 18.6579 84.8813C19.1286 85.0548 19.6301 85.1292 20.131 85.1"></path><path id="Vector_83" stroke="#120071" stroke-linecap="round" stroke-linejoin="round" d="M58.224 68.635C58.186 69.376 57.236 69.68 56.533 69.186C56.461 69.3246 56.3596 69.4459 56.236 69.5412C56.1123 69.6366 55.9692 69.7039 55.8169 69.7382C55.6645 69.7726 55.5065 69.7733 55.3538 69.7403C55.2011 69.7072 55.0575 69.6413 54.933 69.547C54.8854 69.712 54.7971 69.8623 54.6762 69.9843C54.5553 70.1063 54.4057 70.1959 54.2411 70.245C54.0766 70.2941 53.9023 70.301 53.7344 70.2652C53.5665 70.2294 53.4102 70.1519 53.28 70.04C53.907 71.161 54.192 72.416 53.318 71.56C52.33 70.592 51.27 71.993 52.824 73.175C53.1162 73.4365 53.331 73.7733 53.445 74.1485C53.5589 74.5238 53.5675 74.9231 53.47 75.303C51.894 72.663 49.082 70.573 48.436 69.927C46.936 68.427 47.999 67.476 49.272 68.027C48.972 67.21 49.937 66.527 50.829 67.21C50.582 66.41 51.78 65.747 52.805 66.583C52.634 65.709 54.116 65.348 54.971 66.108C54.838 65.329 56.209 65.27 56.833 66.298C57.333 67.113 58.224 68.635 58.224 68.635Z"></path><path id="Vector_84" stroke="#120071" stroke-linecap="round" stroke-linejoin="round" d="M50.511 93.466L51.9 91.68C51.217 91.548 50.571 91.414 49.925 91.301"></path><path id="Vector_85" stroke="#120071" stroke-linecap="round" stroke-linejoin="round" d="M51.784 80.851C51.537 80.756 39.584 77.64 22.791 79.251C21.8803 82.6518 21.9846 86.2448 23.091 89.587C32.0704 88.8569 41.1083 89.434 49.922 91.3C50.9924 94.7997 51.6801 98.4051 51.973 102.053"></path><path id="Vector_86" stroke="#120071" stroke-linecap="round" stroke-linejoin="round" d="M40.023 59.078C40.0675 59.5928 39.9584 60.1092 39.7095 60.562C39.4605 61.0147 39.083 61.3835 38.6245 61.6218C38.166 61.86 37.6471 61.9569 37.1336 61.9004C36.62 61.8438 36.1347 61.6362 35.7391 61.3039C35.3434 60.9715 35.0552 60.5294 34.9108 60.0333C34.7664 59.5372 34.7723 59.0094 34.9278 58.5167C35.0834 58.0239 35.3814 57.5884 35.7844 57.265C36.1874 56.9417 36.6773 56.745 37.192 56.7C37.8823 56.642 38.5675 56.8595 39.098 57.3051C39.6284 57.7507 39.961 58.388 40.023 59.078V59.078Z"></path><path id="Vector_87" stroke="#120071" stroke-linecap="round" stroke-linejoin="round" d="M144.176 149.666H135.949"></path><path id="Vector_88" stroke="#120071" stroke-linecap="round" stroke-linejoin="round" d="M140.063 153.788V145.543"></path><path id="Vector_89" stroke="#120071" stroke-linecap="round" stroke-linejoin="round" d="M28.8 78.856C27.8709 82.3248 28.0436 85.9967 29.294 89.363"></path><path id="Vector_90" stroke="#120071" stroke-linecap="round" stroke-linejoin="round" d="M81.9 65.994C84.7558 67.9037 87.0807 70.5065 88.657 73.559"></path><path id="Vector_91" stroke="#120071" stroke-linecap="round" stroke-linejoin="round" d="M177.139 78.362C176.474 78.4 175.296 78.457 175.03 78.476C175.524 76.9 176.4 76.88 177.139 78.362Z"></path><path id="Vector_92" stroke="#120071" stroke-linecap="round" stroke-linejoin="round" d="M177.747 87.482C177.272 88.774 176.493 88.831 175.828 87.634C176.379 87.6 177.044 87.539 177.747 87.482Z"></path><path id="Vector_93" stroke="#120071" stroke-linecap="round" stroke-linejoin="round" d="M141.193 100.4C148.888 105.8 150.993 112.466 154.226 124.3C154.339 124.713 154.556 125.09 154.856 125.396C155.157 125.701 155.53 125.924 155.941 126.045C156.352 126.165 156.787 126.178 157.204 126.083C157.622 125.987 158.008 125.787 158.326 125.5L176.4 109.122"></path><path id="Vector_94" stroke="#120071" stroke-linecap="round" stroke-linejoin="round" d="M111.308 155.346L117.862 130.23L137.127 113.491"></path><path id="Vector_95" stroke="#120071" stroke-linecap="round" stroke-linejoin="round" d="M62.176 104.752C61.4491 105.983 60.4682 107.045 59.2986 107.868C58.129 108.69 56.7975 109.254 55.393 109.521"></path><path id="Vector_96" stroke="#120071" stroke-linecap="round" stroke-linejoin="round" d="M73.1 135.929C75.0231 137.316 77.214 138.288 79.5333 138.783C81.8525 139.277 84.2493 139.283 86.571 138.8"></path><path id="Vector_97" stroke="#120071" stroke-linecap="round" stroke-linejoin="round" d="M34.57 120.2C30.847 122.708 28.47 126.774 27.028 131.9"></path><path id="Vector_98" stroke="#120071" stroke-linecap="round" stroke-linejoin="round" d="M162.814 115.087L157.514 123.447C157.508 122.355 157.445 121.264 157.324 120.179"></path><path id="Vector_99" stroke="#120071" stroke-linecap="round" stroke-linejoin="round" d="M86.606 63.3C89.328 61.248 89.991 58.2 90.086 55.427C89.8913 53.4876 89.5612 51.5643 89.098 49.671C89.038 49.291 89.573 48.835 90.656 51.02L91.283 52.384"></path><path id="Vector_100" stroke="#120071" stroke-linejoin="round" d="M98.008 28.451C96.4851 28.451 94.9964 28.9026 93.7301 29.7487C92.4639 30.5948 91.4769 31.7973 90.8941 33.2043C90.3113 34.6113 90.1589 36.1595 90.456 37.6532C90.7531 39.1468 91.4864 40.5189 92.5633 41.5957C93.6402 42.6726 95.0122 43.4059 96.5058 43.703C97.9995 44.0002 99.5477 43.8477 100.955 43.2649C102.362 42.6821 103.564 41.6951 104.41 40.4289C105.256 39.1626 105.708 37.6739 105.708 36.151C105.71 35.1393 105.512 34.1372 105.126 33.2022C104.739 32.2671 104.172 31.4175 103.457 30.7022C102.741 29.9868 101.892 29.4197 100.957 29.0334C100.022 28.6471 99.0197 28.4492 98.008 28.451Z"></path><circle id="Ellipse 1" cx="98.008" cy="31.969" r=".75" stroke="#120071" stroke-linejoin="round"></circle><path id="Vector 1" fill="#120071" d="M98.375 34.75C98.375 34.5429 98.2071 34.375 98 34.375C97.7929 34.375 97.625 34.5429 97.625 34.75H98.375ZM97.625 40.9375C97.625 41.1446 97.7929 41.3125 98 41.3125C98.2071 41.3125 98.375 41.1446 98.375 40.9375H97.625ZM97.625 34.75V40.9375H98.375V34.75H97.625Z"></path></g></g></svg>