<svg xmlns="http://www.w3.org/2000/svg" fill="none" viewBox="0 0 200 200" stroke-width=".75" height="400" width="400"><g id="Business-Charts-pie-and-bars"><g id="color 2"><path id="Vector" fill="#fecfc4" d="M176.325 56.072L174.919 73.515C168.51 73.6437 162.098 73.4344 155.71 72.888L143.777 87.688L137.526 70.626C122.892 70.52 110.078 67.908 95.8971 64.317C94.7213 66.0544 93.9256 68.0206 93.5622 70.0868C93.1988 72.153 93.2758 74.2726 93.7881 76.307C105.038 79.074 114.059 81.307 125.613 82.33L131.18 80.658C130.477 88.5832 130.572 96.5589 131.465 104.465C139.046 103.705 147.596 104.712 156.755 106.802C157.205 99.264 157.755 93.27 159.738 86.491C166.467 87.0779 173.231 87.1669 179.973 86.757C181.815 86.5879 183.537 85.772 184.834 84.454C186.132 83.136 186.92 81.4011 187.06 79.557L188.789 57.117C184.741 55.9682 180.508 55.6133 176.325 56.072Z"></path></g><g id="color 1"><path id="Vector_2" fill="#6153bd" d="M146.798 64.395L144.879 66.219L145.43 64.51L146.798 64.395Z"></path><path id="Vector_3" fill="#6153bd" d="M125.613 82.312C127.337 82.463 129.157 82.589 131.013 82.683C131.067 82 131.13 81.322 131.18 80.64L125.613 82.312Z"></path><path id="Vector_4" fill="#6153bd" d="M96.9231 73.667C96.8273 73.5525 96.6997 73.469 96.5564 73.427C96.4132 73.385 96.2606 73.3865 96.1182 73.4311C95.9757 73.4758 95.8497 73.5617 95.7561 73.678C95.6624 73.7943 95.6054 73.9357 95.5921 74.0844C95.5788 74.2331 95.6099 74.3824 95.6815 74.5134C95.7531 74.6445 95.8619 74.7513 95.9941 74.8205C96.1264 74.8897 96.2763 74.9182 96.4247 74.9022C96.5731 74.8863 96.7135 74.8267 96.8281 74.731C96.9044 74.6675 96.9673 74.5895 97.0134 74.5016C97.0595 74.4137 97.0877 74.3176 97.0965 74.2187C97.1054 74.1199 97.0946 74.0203 97.0648 73.9256C97.0351 73.8309 96.9869 73.743 96.9231 73.667Z"></path><path id="Vector_5" fill="#6153bd" d="M114.916 70.608C114.82 70.4934 114.693 70.4097 114.549 70.3676C114.406 70.3255 114.254 70.3268 114.111 70.3714C113.968 70.416 113.842 70.5019 113.749 70.6182C113.655 70.7345 113.598 70.876 113.585 71.0247C113.571 71.1735 113.602 71.3229 113.674 71.4539C113.746 71.585 113.854 71.6919 113.987 71.7611C114.119 71.8303 114.269 71.8586 114.418 71.8426C114.566 71.8265 114.706 71.7668 114.821 71.671C114.897 71.6075 114.96 71.5296 115.006 71.4418C115.052 71.3539 115.08 71.2579 115.089 71.1592C115.098 71.0605 115.087 70.961 115.057 70.8664C115.028 70.7718 114.98 70.684 114.916 70.608Z"></path><path id="Vector_6" fill="#6153bd" d="M129.2 79.405C129.137 79.3288 129.059 79.2658 128.971 79.2197C128.883 79.1737 128.787 79.1454 128.688 79.1366C128.589 79.1278 128.489 79.1385 128.395 79.1683C128.3 79.1981 128.212 79.2462 128.136 79.31C128.058 79.3726 127.994 79.4501 127.947 79.5381C127.9 79.626 127.871 79.7225 127.863 79.8218C127.854 79.9211 127.865 80.0212 127.896 80.1161C127.926 80.211 127.976 80.2987 128.041 80.374C128.105 80.4501 128.183 80.5129 128.271 80.5589C128.359 80.6049 128.455 80.6331 128.553 80.6419C128.652 80.6507 128.752 80.64 128.846 80.6103C128.941 80.5807 129.029 80.5326 129.105 80.469C129.181 80.4054 129.244 80.3274 129.29 80.2395C129.336 80.1516 129.364 80.0555 129.373 79.9567C129.382 79.8579 129.371 79.7583 129.341 79.6637C129.312 79.569 129.264 79.4811 129.2 79.405Z"></path><path id="Vector_7" fill="#6153bd" d="M161.524 83.186C161.62 83.3005 161.747 83.384 161.891 83.426C162.034 83.468 162.187 83.4666 162.329 83.4219C162.471 83.3772 162.597 83.2913 162.691 83.175C162.785 83.0588 162.842 82.9173 162.855 82.7686C162.868 82.6199 162.837 82.4706 162.766 82.3396C162.694 82.2086 162.585 82.1017 162.453 82.0325C162.321 81.9633 162.171 81.9348 162.022 81.9508C161.874 81.9667 161.734 82.0263 161.619 82.122C161.543 82.1855 161.48 82.2635 161.434 82.3514C161.388 82.4393 161.359 82.5354 161.351 82.6343C161.342 82.7331 161.353 82.8328 161.382 82.9274C161.412 83.0221 161.46 83.11 161.524 83.186Z"></path><path id="Vector_8" fill="#6153bd" d="M184.058 77.581C184.154 77.6955 184.281 77.779 184.425 77.821C184.568 77.863 184.72 77.8615 184.863 77.8169C185.005 77.7722 185.131 77.6863 185.225 77.57C185.319 77.4537 185.376 77.3123 185.389 77.1636C185.402 77.0149 185.371 76.8656 185.3 76.7346C185.228 76.6035 185.119 76.4967 184.987 76.4275C184.855 76.3583 184.705 76.3298 184.556 76.3458C184.408 76.3617 184.268 76.4213 184.153 76.517C184.077 76.5805 184.014 76.6585 183.968 76.7464C183.922 76.8343 183.893 76.9304 183.885 77.0293C183.876 77.1281 183.887 77.2278 183.916 77.3224C183.946 77.4171 183.994 77.505 184.058 77.581Z"></path><path id="Vector_9" fill="#6153bd" d="M141.763 87.917C141.7 87.8408 141.622 87.7778 141.534 87.7318C141.446 87.6857 141.35 87.6575 141.251 87.6486C141.152 87.6398 141.053 87.6506 140.958 87.6803C140.864 87.7101 140.776 87.7582 140.7 87.822C140.622 87.8845 140.558 87.962 140.511 88.0499C140.464 88.1379 140.435 88.2344 140.426 88.3338C140.417 88.4331 140.428 88.5332 140.459 88.6281C140.49 88.723 140.54 88.8107 140.605 88.886C140.668 88.963 140.746 89.0267 140.834 89.0735C140.922 89.1202 141.019 89.149 141.118 89.1583C141.217 89.1676 141.318 89.1571 141.413 89.1274C141.508 89.0978 141.596 89.0496 141.673 88.9856C141.749 88.9216 141.812 88.8431 141.858 88.7546C141.904 88.6662 141.932 88.5694 141.941 88.4701C141.949 88.3707 141.938 88.2707 141.907 88.1758C141.877 88.0808 141.828 87.9929 141.763 87.917Z"></path><path id="Vector_10" fill="#6153bd" d="M145.829 89.437C145.925 89.5515 146.052 89.635 146.196 89.677C146.339 89.719 146.491 89.7175 146.634 89.6729C146.776 89.6282 146.902 89.5423 146.996 89.426C147.09 89.3097 147.147 89.1683 147.16 89.0196C147.173 88.8709 147.142 88.7216 147.071 88.5906C146.999 88.4595 146.89 88.3527 146.758 88.2835C146.626 88.2143 146.476 88.1858 146.327 88.2018C146.179 88.2177 146.039 88.2773 145.924 88.373C145.848 88.4365 145.785 88.5145 145.739 88.6024C145.693 88.6903 145.664 88.7864 145.656 88.8853C145.647 88.9841 145.658 89.0837 145.687 89.1784C145.717 89.2731 145.765 89.361 145.829 89.437Z"></path><path id="Vector_11" fill="#6153bd" d="M152.9 102.148C152.996 102.262 153.123 102.346 153.267 102.388C153.41 102.43 153.563 102.429 153.705 102.384C153.847 102.339 153.973 102.253 154.067 102.137C154.161 102.021 154.218 101.879 154.231 101.731C154.244 101.582 154.213 101.433 154.142 101.302C154.07 101.171 153.961 101.064 153.829 100.994C153.697 100.925 153.547 100.897 153.398 100.913C153.25 100.929 153.11 100.988 152.995 101.084C152.919 101.148 152.856 101.225 152.81 101.313C152.764 101.401 152.735 101.497 152.727 101.596C152.718 101.695 152.729 101.795 152.758 101.889C152.788 101.984 152.836 102.072 152.9 102.148Z"></path><path id="Vector_12" fill="#6153bd" d="M133.5 100.305C133.596 100.419 133.724 100.503 133.867 100.545C134.01 100.587 134.163 100.586 134.305 100.541C134.448 100.496 134.574 100.41 134.667 100.294C134.761 100.178 134.818 100.036 134.831 99.8876C134.844 99.7389 134.813 99.5896 134.742 99.4586C134.67 99.3275 134.561 99.2207 134.429 99.1515C134.297 99.0823 134.147 99.0538 133.999 99.0698C133.85 99.0857 133.71 99.1453 133.595 99.241C133.519 99.3045 133.456 99.3825 133.41 99.4704C133.364 99.5583 133.336 99.6544 133.327 99.7533C133.318 99.8521 133.329 99.9518 133.358 100.046C133.388 100.141 133.436 100.229 133.5 100.305Z"></path><path id="Vector_13" fill="#6153bd" d="M154.3 58.713C153.578 55.104 152.932 51.36 150.12 48.985C148.314 50.485 145.084 53.336 143.641 57.042C147.497 50.429 149.683 55.635 149.302 58.466C149.284 58.98 149.569 59.112 150.402 58.581C152.151 57.441 153.215 60.404 149.965 61.621C149.548 61.773 148.579 63.939 148.826 66.409C148.471 62.988 154.3 58.713 154.3 58.713Z"></path><path id="Vector_14" fill="#6153bd" d="M178.966 58.809C178.87 58.6945 178.743 58.611 178.599 58.569C178.456 58.527 178.304 58.5285 178.161 58.5731C178.019 58.6178 177.893 58.7037 177.799 58.82C177.705 58.9363 177.648 59.0777 177.635 59.2264C177.622 59.3751 177.653 59.5244 177.724 59.6554C177.796 59.7865 177.905 59.8933 178.037 59.9625C178.169 60.0317 178.319 60.0602 178.468 60.0442C178.616 60.0283 178.756 59.9687 178.871 59.873C178.947 59.8096 179.011 59.7316 179.057 59.6437C179.103 59.5558 179.131 59.4596 179.14 59.3608C179.149 59.2619 179.138 59.1622 179.108 59.0675C179.078 58.9728 179.03 58.885 178.966 58.809Z"></path><path id="Vector_15" fill="#6153bd" d="M64.509 133.593C61.203 136.139 55.255 140.548 53.166 142.793C55.807 143.383 64.053 141.501 68.803 141.501C70.3236 141.503 71.8374 141.298 73.303 140.893C74.215 139.886 75.222 138.633 76.267 137.473C72.1462 136.897 68.1631 135.583 64.509 133.593Z"></path><path id="Vector_16" fill="#6153bd" d="M104.257 175.907C103.231 179.954 101.274 187.098 101.008 190.138C103.44 188.979 108.78 182.387 112.508 179.46C113.703 178.52 114.769 177.427 115.681 176.211C115.776 174.862 115.795 173.247 115.909 171.689C112.304 173.771 108.359 175.199 104.257 175.907Z"></path><path id="Vector_17" fill="#6153bd" d="M152.232 135.018L155.232 160.631C159.233 160.186 163.077 158.82 166.463 156.641C169.848 154.462 172.683 151.529 174.745 148.071L152.232 135.018Z"></path><path id="Vector_18" fill="#6153bd" d="M156.565 86.188L159.757 86.492L158.902 89.627L156.565 86.188Z"></path><path id="Vector_19" fill="#6153bd" d="M81.7 71.212C81.7916 71.0972 81.9243 71.0226 82.07 71.004C79.047 70.444 76.253 70.469 74.728 70.004L42.05 67.966C41.9838 67.9643 41.9194 67.9882 41.8703 68.0326C41.8211 68.0771 41.791 68.1388 41.7861 68.2049C41.7812 68.271 41.802 68.3364 41.844 68.3876C41.8861 68.4389 41.9462 68.4719 42.012 68.48L81.81 72C81.59 71.643 81.538 71.417 81.7 71.212Z"></path></g><g id="outlines"><path id="Vector_20" stroke="#120071" stroke-linecap="round" stroke-linejoin="round" d="M171.746 73.534L151.646 28.427C150.04 24.8221 147.069 22.0025 143.385 20.588C139.701 19.1735 135.606 19.28 132 20.884L30.764 65.953C27.1587 67.5585 24.3387 70.5302 22.9241 74.2146C21.5096 77.8989 21.6164 81.9943 23.221 85.6L56.871 161.145C58.4764 164.75 61.448 167.57 65.1321 168.984C68.8163 170.399 72.9114 170.292 76.517 168.688L105.169 155.939"></path><path id="Vector_21" stroke="#120071" stroke-linecap="round" stroke-linejoin="round" d="M123.808 147.634L177.75 123.618C181.355 122.013 184.175 119.041 185.589 115.357C187.004 111.673 186.897 107.578 185.293 103.972L177.693 86.91"></path><path id="Vector_22" stroke="#120071" stroke-linecap="round" stroke-linejoin="round" d="M76 121.68L56.415 77.695C56.2101 77.2312 55.9157 76.8125 55.5485 76.4629C55.1812 76.1133 54.7486 75.8397 54.2753 75.6578C53.802 75.476 53.2975 75.3894 52.7906 75.4032C52.2838 75.4169 51.7847 75.5307 51.322 75.738L42.582 79.614C42.1183 79.8188 41.6995 80.1131 41.3499 80.4803C41.0003 80.8474 40.7268 81.2799 40.5449 81.7531C40.363 82.2263 40.2765 82.7308 40.2902 83.2376C40.304 83.7443 40.4177 84.2434 40.625 84.706L62.932 134.806"></path><path id="Vector_23" stroke="#120071" stroke-linecap="round" stroke-linejoin="round" d="M66.751 143.416L69.544 149.686C69.7487 150.15 70.0431 150.568 70.4102 150.918C70.7773 151.268 71.2099 151.541 71.6831 151.723C72.1563 151.905 72.6608 151.992 73.1675 151.978C73.6743 151.964 74.1733 151.85 74.636 151.643L83.376 147.743C83.8397 147.538 84.2584 147.244 84.608 146.877C84.9576 146.51 85.2312 146.077 85.4131 145.604C85.5949 145.131 85.6815 144.626 85.6677 144.119C85.654 143.613 85.5402 143.114 85.333 142.651L82.293 135.792"></path><path id="Vector_24" stroke="#120071" stroke-linecap="round" stroke-linejoin="round" d="M92.572 127.627L96.942 137.469C97.1468 137.933 97.4412 138.351 97.8083 138.701C98.1754 139.051 98.608 139.324 99.0812 139.506C99.5544 139.688 100.059 139.775 100.566 139.761C101.072 139.747 101.571 139.633 102.034 139.426L109.881 135.949"></path><path id="Vector_25" stroke="#120071" stroke-linecap="round" stroke-linejoin="round" d="M107.829 119.419L112.845 130.667"></path><path id="Vector_26" stroke="#120071" stroke-linecap="round" stroke-linejoin="round" d="M100.438 102.832L93.883 88.107C93.6782 87.6432 93.3839 87.2245 93.0167 86.8749C92.6496 86.5253 92.217 86.2518 91.7438 86.0699C91.2707 85.888 90.7662 85.8015 90.2594 85.8152C89.7527 85.829 89.2536 85.9427 88.791 86.15L80.051 90.026C79.5872 90.2308 79.1685 90.5251 78.8189 90.8923C78.4693 91.2594 78.1958 91.6919 78.0139 92.1651C77.832 92.6383 77.7455 93.1428 77.7592 93.6496C77.773 94.1563 77.8867 94.6554 78.094 95.118L86.15 113.225"></path><path id="Vector_27" stroke="#120071" stroke-linecap="round" stroke-linejoin="round" d="M130.9 97.474L125.656 85.674C125.451 85.2102 125.157 84.7915 124.79 84.4419C124.423 84.0923 123.99 83.8187 123.517 83.6369C123.044 83.455 122.539 83.3685 122.032 83.3822C121.526 83.396 121.027 83.5097 120.564 83.717L111.824 87.612C111.36 87.8167 110.941 88.1111 110.592 88.4782C110.242 88.8453 109.969 89.2779 109.787 89.7511C109.605 90.2243 109.518 90.7288 109.532 91.2355C109.546 91.7423 109.66 92.2413 109.867 92.704L114.617 103.404"></path><path id="Vector_28" stroke="#120071" stroke-linecap="round" stroke-linejoin="round" d="M158.237 114.422L165.59 111.135C166.054 110.93 166.473 110.636 166.822 110.269C167.172 109.902 167.445 109.469 167.627 108.996C167.809 108.523 167.896 108.018 167.882 107.511C167.868 107.005 167.754 106.506 167.547 106.043L159.4 87.727"></path><path id="Vector_29" stroke="#120071" stroke-linecap="round" stroke-linejoin="round" d="M149.079 64.566L152.499 72.242"></path><path id="Vector_30" stroke="#120071" stroke-linecap="round" stroke-linejoin="round" d="M144.86 55.1L138.628 41.078C138.423 40.6142 138.129 40.1955 137.762 39.8459C137.395 39.4963 136.962 39.2227 136.489 39.0409C136.016 38.859 135.511 38.7725 135.005 38.7862C134.498 38.8 133.999 38.9137 133.536 39.121L124.796 43.016C124.332 43.2207 123.914 43.5151 123.564 43.8822C123.214 44.2494 122.941 44.6819 122.759 45.1551C122.577 45.6283 122.491 46.1328 122.504 46.6396C122.518 47.1463 122.632 47.6454 122.839 48.108L132.776 70.434"></path><path id="Vector_31" stroke="#120071" stroke-linecap="round" stroke-linejoin="round" d="M145.43 64.51C145.889 64.512 146.347 64.4752 146.8 64.4L144.881 66.224"></path><path id="Vector_32" stroke="#120071" stroke-linecap="round" stroke-linejoin="round" d="M158.873 89.688L156.565 86.188L159.738 86.503"></path><path id="Vector_33" stroke="#120071" stroke-linecap="round" stroke-linejoin="round" d="M83.2811 68.4C80.8148 68.2317 78.3414 68.1937 75.8711 68.286C73.3051 68.453 72.1841 69.904 76.7831 70.376C80.1461 70.72 83.6611 70.908 86.7391 72.523"></path><path id="Vector_34" stroke="#120071" stroke-linecap="round" stroke-linejoin="round" d="M81.0769 66.656C81.3999 65.156 82.4069 64.656 85.4849 64.946"></path><path id="Vector_35" stroke="#120071" stroke-linecap="round" stroke-linejoin="round" d="M79.8611 68.233C80.2981 66.633 81.1911 66.314 84.1171 66.58"></path><path id="Vector_36" stroke="#120071" stroke-linecap="round" stroke-linejoin="round" d="M82.3689 65.06C82.8059 63.54 83.8129 63.266 86.7389 63.46C89.6785 63.8016 92.5965 64.3091 95.4789 64.98"></path><path id="Vector_37" stroke="#120071" stroke-linecap="round" stroke-linejoin="round" d="M95.5001 64.984C93.7041 67.9573 93.0043 71.4651 93.5221 74.9C91.0277 75.4281 88.4404 75.3177 86.0001 74.579C82.9001 73.779 80.3561 70.826 82.5001 71.079C83.3721 71.2449 84.2297 71.4789 85.0651 71.779"></path><path id="Vector_38" stroke="#120071" stroke-linecap="round" stroke-linejoin="round" d="M148.85 66.39C148.478 63.018 154.077 58.843 154.297 58.68C153.578 55.08 152.927 51.353 150.124 48.985C147.448 51.2111 145.245 53.9506 143.645 57.042"></path><path id="Vector_39" stroke="#120071" stroke-linecap="round" stroke-linejoin="round" d="M105.112 119.115C111.031 119.667 116.881 120.806 122.575 122.515C119.924 124.425 117.364 126.441 114.897 128.562C112.412 130.701 110.598 133.511 109.672 136.656C106.845 146.523 104.775 156.591 103.478 166.772C108.638 168.557 114.038 169.55 119.495 169.717C120.606 160.12 122.692 150.661 125.719 141.486L149.972 129.968C163.006 123.168 156.755 106.807 156.755 106.807C157.268 98.276 157.971 92.264 159.738 86.507C166.467 87.0995 173.23 87.1911 179.973 86.781C181.815 86.6119 183.537 85.796 184.834 84.478C186.131 83.16 186.92 81.4251 187.06 79.581L188.787 57.141C184.735 55.9791 180.497 55.6114 176.306 56.058L174.9 73.477C152.194 73.857 150.066 71.748 149.439 70.114C148.089 66.561 149.381 61.829 149.99 61.602C153.238 60.384 152.172 57.417 150.427 58.561C149.775 58.989 149.249 59.146 149.336 58.373C149.657 55.524 147.478 50.501 143.662 57.041C139.8 63.641 143.295 64.511 145.429 64.51C145.429 64.51 144.554 67.016 144.061 69.202C143.719 70.721 141.971 70.651 138.437 70.627C122.437 70.517 111.305 68.1 95.8769 64.3C94.7106 66.0417 93.9206 68.0076 93.5575 70.072C93.1943 72.1364 93.266 74.2539 93.7679 76.289C107.754 79.738 117.192 81.989 131.012 82.683C130.459 90.6511 130.699 98.6545 131.73 106.575C122.818 104.502 113.77 103.061 104.655 102.262C102.271 102.052 99.8921 102.721 97.9669 104.143C88.3319 111.226 79.0611 118.791 70.1899 126.81C72.7539 131.014 76.0258 134.742 79.8609 137.83C87.763 130.925 96.2072 124.667 105.112 119.115V119.115Z"></path><path id="Vector_40" stroke="#120071" stroke-linecap="round" stroke-linejoin="round" d="M136.766 113.738C131.836 116.327 127.094 119.259 122.575 122.511"></path><path id="Vector_41" stroke="#120071" stroke-linecap="round" stroke-linejoin="round" d="M156.774 106.8C147.615 104.71 139.065 103.7 131.484 104.463"></path><path id="Vector_42" stroke="#120071" stroke-linecap="round" stroke-linejoin="round" d="M137.507 70.627L143.758 87.651L155.691 72.869"></path><path id="Vector_43" stroke="#120071" stroke-linecap="round" stroke-linejoin="round" d="M143.454 70.152C144.325 70.849 145.385 71.2672 146.497 71.3519C147.609 71.4367 148.721 71.184 149.687 70.627"></path><path id="Vector_44" stroke="#120071" stroke-linecap="round" stroke-linejoin="round" d="M139.768 70.646L141.934 76.194L146.399 71.349L149.687 76.669L153.221 72.413"></path><path id="Vector_45" stroke="#120071" stroke-linecap="round" stroke-linejoin="round" d="M146.4 71.349C145.089 76.403 142.22 96.657 142.5 104.466"></path><path id="Vector_46" stroke="#120071" stroke-linecap="round" stroke-linejoin="round" d="M151.4 105.682C151.4 105.682 150.26 113.982 156.758 116.588"></path><path id="Vector_47" stroke="#120071" stroke-linecap="round" stroke-linejoin="round" d="M154.95 115.6C144.345 120.82 134.178 126.888 124.55 133.745C121.447 135.983 119.18 139.192 118.109 142.865C115.685 151.467 113.869 160.229 112.675 169.086"></path><path id="Vector_48" stroke="#120071" stroke-linecap="round" stroke-linejoin="round" d="M128.957 118.241C121.835 116.222 114.595 114.648 107.278 113.529C104.847 113.164 102.367 113.719 100.324 115.087C91.6932 120.817 83.4426 127.1 75.624 133.897"></path><path id="Vector_49" stroke="#120071" stroke-linecap="round" stroke-linejoin="round" d="M77.771 135.987C75.2166 133.676 72.9632 131.052 71.064 128.178C69.544 129.66 67.036 131.655 64.509 133.612C68.1696 135.593 72.1509 136.914 76.27 137.512C76.7363 136.971 77.2377 136.462 77.771 135.987V135.987Z"></path><path id="Vector_50" stroke="#120071" stroke-linecap="round" stroke-linejoin="round" d="M53.1661 142.789C52.6151 143.397 52.3231 143.837 52.4241 144.081C53.0521 145.599 62.0771 143.359 66.9031 143.359C68.3192 143.37 69.7286 143.165 71.0831 142.751C71.9364 142.288 72.6852 141.654 73.2831 140.889C71.8176 141.295 70.3037 141.499 68.7831 141.497C64.0531 141.5 55.7881 143.4 53.1661 142.789Z"></path><path id="Vector_51" stroke="#120071" stroke-linecap="round" stroke-linejoin="round" d="M64.509 133.593C61.203 136.139 55.256 140.547 53.166 142.793C55.807 143.382 64.053 141.501 68.803 141.501C70.3236 141.502 71.8373 141.298 73.303 140.893C74.215 139.886 75.222 138.632 76.267 137.473C72.1462 136.897 68.1631 135.583 64.509 133.593V133.593Z"></path><path id="Vector_52" stroke="#120071" stroke-linecap="round" stroke-linejoin="round" d="M116.151 169.523C112.734 169.211 109.355 168.569 106.062 167.604C105.777 169.694 105.036 172.81 104.262 175.904C108.362 175.195 112.305 173.767 115.909 171.686C115.961 170.967 116.037 170.188 116.151 169.523Z"></path><path id="Vector_53" stroke="#120071" stroke-linecap="round" stroke-linejoin="round" d="M101.008 190.138C100.932 190.955 100.99 191.485 101.217 191.601C102.686 192.35 108.353 185.054 112.161 182.082C113.28 181.216 114.26 180.185 115.068 179.023C115.459 178.131 115.66 177.166 115.657 176.192C114.751 177.413 113.683 178.506 112.484 179.441C108.757 182.358 103.459 188.979 101.008 190.138Z"></path><path id="Vector_54" stroke="#120071" stroke-linecap="round" stroke-linejoin="round" d="M104.257 175.907C103.231 179.954 101.274 187.098 101.008 190.138C103.44 188.979 108.78 182.387 112.508 179.46C113.703 178.52 114.769 177.427 115.681 176.211C115.776 174.862 115.795 173.247 115.909 171.689C112.304 173.771 108.359 175.199 104.257 175.907V175.907Z"></path><path id="Vector_55" stroke="#120071" stroke-linecap="round" stroke-linejoin="round" d="M18.395 109.615L9.12305 88.487"></path><path id="Vector_56" stroke="#120071" stroke-linecap="round" stroke-linejoin="round" d="M5 99.089L9.123 88.487L19.725 92.629"></path><path id="Vector_57" stroke="#120071" stroke-linecap="round" stroke-linejoin="round" d="M186.376 149.249C186.574 149.702 186.633 150.204 186.546 150.691C186.459 151.178 186.229 151.628 185.886 151.984C185.543 152.341 185.101 152.587 184.618 152.693C184.135 152.798 183.631 152.758 183.171 152.577C182.71 152.396 182.314 152.082 182.032 151.676C181.75 151.27 181.594 150.789 181.586 150.294C181.577 149.8 181.715 149.313 181.983 148.897C182.25 148.481 182.635 148.154 183.089 147.957C183.697 147.696 184.383 147.686 184.998 147.928C185.613 148.17 186.108 148.644 186.376 149.249V149.249Z"></path><path id="Vector_58" stroke="#120071" stroke-linecap="round" stroke-linejoin="round" d="M194.793 152.5C194.991 152.953 195.05 153.455 194.963 153.942C194.876 154.429 194.646 154.879 194.303 155.235C193.96 155.592 193.518 155.838 193.035 155.944C192.552 156.049 192.048 156.009 191.588 155.828C191.127 155.647 190.731 155.333 190.449 154.927C190.167 154.521 190.011 154.04 190.003 153.545C189.994 153.051 190.132 152.564 190.4 152.148C190.667 151.732 191.052 151.405 191.506 151.208C192.114 150.948 192.8 150.937 193.415 151.179C194.03 151.421 194.525 151.896 194.793 152.5V152.5Z"></path><path id="Vector_59" stroke="#120071" stroke-linecap="round" stroke-linejoin="round" d="M185.312 159.32L191.24 144.29"></path><path id="Vector_60" stroke="#120071" stroke-linecap="round" stroke-linejoin="round" d="M186.129 56.49C186.156 54.3244 186.397 52.1668 186.851 50.049C187.276 48.3185 187.894 46.6413 188.694 45.049C189.874 42.713 189.71 42.324 187.573 44.213C186.75 44.9303 186.004 45.7327 185.35 46.607C183.121 49.4569 181.241 52.5633 179.75 55.86"></path><path id="Vector_61" stroke="#120071" stroke-linecap="round" stroke-linejoin="round" d="M183.735 48.833C182.481 50.315 181.987 46.439 181.322 44.786C180.771 43.418 179.751 42.202 179.822 46.286C179.726 49.4928 179.434 52.6908 178.948 55.862"></path><path id="Vector_62" stroke="#120071" stroke-linecap="round" stroke-linejoin="round" d="M188.314 45.831C189.166 44.7475 190.12 43.7486 191.164 42.848C193.207 41.173 193.522 41.824 193.292 42.183C192.392 43.595 190.692 45.717 189.892 47.047C188.525 49.3516 187.313 51.7446 186.263 54.21"></path><path id="Vector_63" stroke="#120071" stroke-linecap="round" stroke-linejoin="round" d="M191.278 45.014C191.639 44.748 191.697 44.714 191.867 44.596C194.072 43.085 194.338 43.78 194.067 44.121C193.025 45.454 191.275 47.257 190.229 48.434C188.902 49.7007 187.774 51.1613 186.885 52.766"></path><path id="Vector_64" stroke="#120071" stroke-linecap="round" stroke-linejoin="round" d="M63.4831 40.758L54.9331 55.16L38.6111 51.436"></path><path id="Vector_65" stroke="#120071" stroke-linecap="round" stroke-linejoin="round" d="M70.2089 48.282C68.3719 44.2704 65.0264 41.1455 60.8991 39.5858C56.7717 38.0262 52.1957 38.1577 48.1647 39.9519C44.1338 41.7461 40.9734 45.058 39.3698 49.1685C37.7662 53.279 37.8489 57.8561 39.5999 61.906"></path><path id="Vector_66" stroke="#120071" stroke-linecap="round" stroke-linejoin="round" d="M171.518 43.608L173.418 38.706L168.535 36.863L170.435 31.942L165.495 29.947L167.395 25.045L162.36 23.069"></path><path id="Vector_67" stroke="#120071" stroke-linecap="round" stroke-linejoin="round" d="M173.589 35.343L175.489 30.441L170.625 28.598L172.525 23.677L167.566 21.682L169.485 16.78L164.431 14.823"></path><path id="Vector_68" stroke="#120071" stroke-linecap="round" stroke-linejoin="round" d="M176 124.4C177.624 127.936 178.417 131.796 178.318 135.686C178.081 141.555 175.877 147.173 172.059 151.637C168.241 156.1 163.032 159.149 157.271 160.292C151.509 161.435 145.531 160.606 140.298 157.938C135.065 155.271 130.883 150.92 128.423 145.586"></path><path id="Vector_69" stroke="#120071" stroke-linecap="round" stroke-linejoin="round" d="M174.748 148.071L152.233 135.037L155.235 160.631"></path><path id="Vector_70" stroke="#120071" stroke-linecap="round" stroke-linejoin="round" d="M152.233 135.037L132.453 151.814"></path><path id="Vector_71" stroke="#120071" stroke-linecap="round" stroke-linejoin="round" d="M96.334 8.34399L102.338 21.283"></path><path id="Vector_72" stroke="#120071" stroke-linecap="round" stroke-linejoin="round" d="M105.815 11.802L92.8569 17.825"></path><path id="Vector_73" stroke="#120071" stroke-linecap="round" stroke-linejoin="round" d="M43.4561 150.446L39.7511 155.634L37.1101 149.819L43.4561 150.446Z"></path><path id="Vector_74" stroke="#120071" stroke-linecap="round" stroke-linejoin="round" d="M131.731 106.575L133.327 106.917"></path></g></g></svg>