<svg xmlns="http://www.w3.org/2000/svg" fill="none" viewBox="0 0 200 200" stroke-width=".75" height="400" width="400"><g id="Development-Coding-01"><g id="color 2"><path id="Vector" fill="#fecfc4" d="M83.071 74.806C80.164 77.238 71.158 78.948 62.703 100.285L50.258 89.094C44.5136 92.009 40.0627 96.9613 37.775 102.983L56.49 119.8C58.6579 121.741 61.5072 122.743 64.4129 122.586C67.3185 122.43 70.0435 121.127 71.99 118.964L79.745 110.331L76.664 130.763L64.048 144.823C67.2135 150.381 72.0925 154.766 77.956 157.323L91.313 142.465C93.2903 140.266 94.6878 137.608 95.379 134.732C98.286 122.532 97.298 101.007 99.179 82.463C91.64 81.057 88.847 79.347 83.071 74.806Z"></path></g><g id="color 1"><path id="Vector_2" fill="#6153bd" d="M186.036 75.661L164.376 98.518L172.964 60.708L194.624 37.851L186.036 75.661Z"></path><path id="Vector_3" fill="#6153bd" d="M117.366 67.282C117.081 67.092 116.587 67.263 115.941 67.719L117.441 68.954C117.689 68.08 117.689 67.472 117.366 67.282Z"></path><path id="Vector_4" fill="#6153bd" d="M103.952 78.967C103.552 79.993 103.605 80.855 103.914 81.057C104.223 81.259 105.114 81.057 105.714 80.278L103.952 78.967Z"></path><path id="Vector_5" fill="#6153bd" d="M112.6 68.118C112.315 67.928 111.821 68.099 111.175 68.555L112.675 69.79C112.92 68.935 112.9 68.327 112.6 68.118Z"></path><path id="Vector_6" fill="#6153bd" d="M68.156 140.147L63.956 144.821C67.1215 150.379 72.0005 154.764 77.864 157.321L82.253 152.438C76.4818 149.763 71.592 145.5 68.156 140.147V140.147Z"></path><path id="Vector_7" fill="#6153bd" d="M92.324 71.234L99.354 82.159L101.216 78.777L92.324 71.234Z"></path><path id="Vector_8" fill="#6153bd" d="M99.525 43.684L100.494 45.774L101.026 44.349L99.525 43.684Z"></path><path id="Vector_9" fill="#6153bd" d="M94.49 93.92L79.727 110.336L78.226 120.406L94.49 93.92Z"></path><path id="Vector_10" fill="#6153bd" d="M58.618 157.057C57.383 158.387 56.11 159.717 54.799 161.085C53.754 167.26 54.248 181.434 56.243 188.027C61.543 179.211 63.463 173.627 66.143 164.543C63.2558 162.46 60.7161 159.933 58.618 157.057V157.057Z"></path><path id="Vector_11" fill="#6153bd" d="M37.7 84.192C36.788 83.28 35.743 82.159 34.356 80.658C23.6 82.178 11.764 85.769 6.74799 88.144C14.3986 91.0371 22.5938 92.2049 30.748 91.564L31.166 91.944C32.9594 89.0589 35.1601 86.4479 37.7 84.192V84.192Z"></path><path id="Vector_12" fill="#6153bd" d="M54.362 92.685L50.262 88.985C44.5219 91.9056 40.0727 96.856 37.779 102.874L41.94 106.617C44.8187 100.985 49.0961 96.1881 54.362 92.685V92.685Z"></path><path id="Vector_13" fill="#6153bd" d="M107.885 31.315C107.966 30.8547 107.88 30.3806 107.643 29.9776C107.407 29.5746 107.034 29.2689 106.593 29.115C106.877 28.8525 107.078 28.5127 107.172 28.1373C107.266 27.762 107.248 27.3675 107.12 27.0022C106.993 26.637 106.761 26.3169 106.455 26.0813C106.148 25.8457 105.779 25.7048 105.393 25.676C105.55 25.3411 105.612 24.9691 105.57 24.6014C105.529 24.2337 105.386 23.8847 105.158 23.5933C104.93 23.3019 104.626 23.0794 104.279 22.9507C103.932 22.8219 103.556 22.7919 103.193 22.864C103.24 22.4953 103.182 22.1208 103.026 21.7833C102.87 21.4458 102.623 21.1588 102.312 20.9549C102.001 20.751 101.639 20.6385 101.268 20.63C100.896 20.6215 100.53 20.7175 100.21 20.907C100.142 20.5283 99.9668 20.1771 99.7045 19.8956C99.4422 19.6141 99.1042 19.4143 98.7312 19.32C98.3582 19.2257 97.9659 19.2411 97.6013 19.3642C97.2368 19.4873 96.9155 19.7129 96.676 20.014C96.4948 19.6513 96.2118 19.3492 95.8617 19.1446C95.5116 18.94 95.1095 18.8418 94.7045 18.8619C94.2995 18.8821 93.9091 19.0197 93.581 19.2581C93.2529 19.4964 93.0014 19.8251 92.857 20.204C92.6274 19.962 92.3406 19.7816 92.023 19.6795C91.7054 19.5775 91.3672 19.5569 91.0395 19.6199C90.7119 19.6829 90.4054 19.8272 90.1483 20.0398C89.8911 20.2523 89.6916 20.5261 89.568 20.836C89.6007 20.3609 89.4969 19.8864 89.2691 19.4683C89.0412 19.0501 88.6986 18.7058 88.2817 18.4757C87.8647 18.2457 87.3908 18.1395 86.9155 18.1696C86.4403 18.1998 85.9835 18.3651 85.599 18.646C85.3885 18.1601 85.0346 17.75 84.5847 17.4706C84.1348 17.1913 83.6103 17.056 83.0814 17.0828C82.5524 17.1097 82.0443 17.2974 81.625 17.6209C81.2057 17.9444 80.8952 18.3882 80.735 18.893C80.3001 18.63 79.7951 18.5065 79.2879 18.5392C78.7807 18.5719 78.2957 18.7592 77.8982 19.0758C77.5007 19.3925 77.2097 19.8234 77.0645 20.3105C76.9193 20.7975 76.9268 21.3174 77.086 21.8C76.5773 21.8576 76.0987 22.0706 75.7153 22.4101C75.332 22.7495 75.0627 23.1988 74.944 23.6969C74.8252 24.1949 74.8629 24.7174 75.0519 25.1933C75.2409 25.6691 75.572 26.0751 76 26.356C75.5992 26.6806 75.3089 27.1215 75.1694 27.618C75.0298 28.1145 75.0478 28.6421 75.2209 29.1279C75.394 29.6138 75.7136 30.0339 76.1356 30.3304C76.5576 30.6269 77.0613 30.785 77.577 30.783C77.4735 31.2784 77.5237 31.7936 77.721 32.2596C77.9182 32.7257 78.253 33.1204 78.6806 33.391C79.1082 33.6617 79.6083 33.7953 80.1139 33.774C80.6195 33.7527 81.1066 33.5776 81.51 33.272C81.6698 33.6819 81.9385 34.0402 82.2871 34.3085C82.6357 34.5767 83.0509 34.7446 83.488 34.794C83.4077 35.0777 83.3915 35.3758 83.4406 35.6665C83.4896 35.9573 83.6027 36.2335 83.7717 36.4751C83.9406 36.7168 84.1611 36.9179 84.4173 37.0639C84.6735 37.2098 84.959 37.297 85.253 37.319C85.0942 37.655 85.0327 38.0287 85.0755 38.3979C85.1183 38.767 85.2636 39.1168 85.4951 39.4075C85.7265 39.6983 86.0347 39.9184 86.3848 40.0429C86.735 40.1674 87.113 40.1914 87.476 40.112C87.4324 40.4814 87.4932 40.8557 87.6516 41.1922C87.81 41.5288 88.0596 41.8142 88.372 42.016C88.6844 42.2179 89.0472 42.328 89.4191 42.3341C89.7911 42.3401 90.1572 42.2417 90.476 42.05C90.5438 42.4291 90.72 42.7804 90.9833 43.0615C91.2465 43.3426 91.5856 43.5414 91.9594 43.6338C92.3332 43.7263 92.7259 43.7084 93.0898 43.5825C93.4537 43.4565 93.7733 43.2278 94.01 42.924C94.2496 43.2676 94.5602 43.5556 94.9208 43.7687C95.2814 43.9817 95.6835 44.1149 96.1 44.159C96.7365 43.0092 97.1673 41.7571 97.373 40.459C97.5844 39.1373 97.3374 37.783 96.673 36.621C93.842 35.69 95.115 32.365 97.034 33.657C97.946 34.284 98.292 34.244 98.364 33.638C98.3693 33.4629 98.4219 33.2926 98.5163 33.145C98.6107 32.9974 98.7433 32.8782 98.9 32.8C99.0689 33.1564 99.3394 33.4548 99.6775 33.6578C100.015 33.8609 100.406 33.9594 100.8 33.9412C101.194 33.9229 101.574 33.7886 101.891 33.5551C102.209 33.3217 102.451 32.9995 102.586 32.629C102.77 32.8234 102.991 32.9789 103.236 33.0863C103.481 33.1938 103.745 33.2509 104.012 33.2545C104.28 33.258 104.545 33.2079 104.793 33.1069C105.041 33.006 105.266 32.8565 105.455 32.667C105.925 33.7744 106.282 34.9267 106.519 36.106C106.804 35.9453 107.046 35.717 107.222 35.4411C107.399 35.1652 107.505 34.8502 107.531 34.5238C107.557 34.1973 107.503 33.8694 107.373 33.5689C107.243 33.2683 107.041 33.0043 106.785 32.8C107.071 32.6549 107.319 32.4452 107.51 32.1874C107.701 31.9297 107.83 31.631 107.885 31.315V31.315Z"></path><path id="Vector_14" fill="#6153bd" d="M149.381 25.8811C149.253 25.1108 148.9 24.3957 148.366 23.8262C147.831 23.2567 147.14 22.8584 146.38 22.6817C145.619 22.505 144.823 22.5577 144.093 22.8333C143.362 23.1089 142.73 23.5949 142.275 24.23C141.821 24.865 141.565 25.6205 141.54 26.4009C141.515 27.1813 141.722 27.9516 142.135 28.6144C142.548 29.2772 143.148 29.8027 143.859 30.1244C144.571 30.4462 145.362 30.5498 146.132 30.4221C147.164 30.2495 148.086 29.6746 148.695 28.8233C149.304 27.972 149.551 26.9139 149.381 25.8811V25.8811Z"></path><path id="Vector_15" fill="#6153bd" d="M31.429 114.46L22.518 117.328L26.2 139.065L31.429 114.46Z"></path><path id="Vector_16" fill="#6153bd" d="M147.12 86.4001L147.114 86.3831L147.12 86.4001Z"></path><path id="Vector_17" fill="#6153bd" d="M155.176 76.877L150.065 81.57C151.858 81.9495 153.6 82.5427 155.252 83.337C155.952 83.6351 156.595 84.0531 157.152 84.572C157.931 85.465 153.752 84.192 151.699 83.964H151.68C152.095 84.1826 152.473 84.4646 152.801 84.8C153.475 85.571 148.32 83.826 147.861 84.154C149.837 85.047 152.896 86.738 153.637 88.054C154.511 89.631 150.027 86.495 147.12 86.4C148.963 87.255 150.977 88.453 151.699 89.783C152.687 91.583 149.115 88.283 144.859 88.149H144.84C148.906 90.619 150.806 92.649 145.03 90.144C143.971 89.6703 142.841 89.3749 141.686 89.27L130.077 99.886L164.353 98.556L169.388 76.364L155.176 76.877Z"></path></g><g id="outlines"><path id="Vector_18" stroke="#120071" stroke-linejoin="round" d="M186.036 75.661L164.376 98.518L172.964 60.708L194.624 37.851L186.036 75.661Z"></path><path id="Vector_19" stroke="#120071" stroke-linejoin="round" d="M155.176 76.877L150.065 81.57C151.858 81.9495 153.6 82.5427 155.252 83.337C155.952 83.6351 156.595 84.0531 157.152 84.572C157.931 85.465 153.752 84.192 151.699 83.964H151.68C152.095 84.1826 152.473 84.4646 152.801 84.8C153.475 85.571 148.32 83.826 147.861 84.154C149.837 85.047 152.896 86.738 153.637 88.054C154.511 89.631 150.027 86.495 147.12 86.4C148.963 87.255 150.977 88.453 151.699 89.783C152.687 91.583 149.115 88.283 144.859 88.149H144.84C148.906 90.619 150.806 92.649 145.03 90.144C143.971 89.6703 142.841 89.3749 141.686 89.27L130.077 99.886L164.353 98.556L169.388 76.364L155.176 76.877Z"></path><path id="Vector_20" stroke="#120071" stroke-linejoin="round" d="M107.885 31.315C107.966 30.8547 107.88 30.3806 107.643 29.9776C107.407 29.5746 107.034 29.2689 106.593 29.115C106.877 28.8525 107.078 28.5127 107.172 28.1373C107.266 27.762 107.248 27.3675 107.12 27.0022C106.993 26.637 106.761 26.3169 106.455 26.0813C106.148 25.8457 105.779 25.7048 105.393 25.676C105.55 25.3411 105.612 24.9691 105.57 24.6014C105.529 24.2337 105.386 23.8847 105.158 23.5933C104.93 23.3019 104.626 23.0794 104.279 22.9507C103.932 22.8219 103.556 22.7919 103.193 22.864C103.24 22.4953 103.182 22.1208 103.026 21.7833C102.87 21.4458 102.623 21.1588 102.312 20.9549C102.001 20.751 101.639 20.6385 101.268 20.63C100.896 20.6215 100.53 20.7175 100.21 20.907C100.142 20.5283 99.9668 20.1771 99.7045 19.8956C99.4422 19.6141 99.1042 19.4143 98.7312 19.32C98.3582 19.2257 97.9659 19.2411 97.6013 19.3642C97.2368 19.4873 96.9155 19.7129 96.676 20.014C96.4948 19.6513 96.2118 19.3492 95.8617 19.1446C95.5116 18.94 95.1095 18.8418 94.7045 18.8619C94.2995 18.8821 93.9091 19.0197 93.581 19.2581C93.2529 19.4964 93.0014 19.8251 92.857 20.204C92.6274 19.962 92.3406 19.7816 92.023 19.6795C91.7054 19.5775 91.3672 19.5569 91.0395 19.6199C90.7119 19.6829 90.4054 19.8272 90.1483 20.0398C89.8911 20.2523 89.6916 20.5261 89.568 20.836C89.6007 20.3609 89.4969 19.8864 89.2691 19.4683C89.0412 19.0501 88.6986 18.7058 88.2817 18.4757C87.8647 18.2457 87.3908 18.1395 86.9155 18.1696C86.4403 18.1998 85.9835 18.3651 85.599 18.646C85.3885 18.1601 85.0346 17.75 84.5847 17.4706C84.1348 17.1913 83.6103 17.056 83.0814 17.0828C82.5524 17.1097 82.0443 17.2974 81.625 17.6209C81.2057 17.9444 80.8952 18.3882 80.735 18.893C80.3001 18.63 79.7951 18.5065 79.2879 18.5392C78.7807 18.5719 78.2957 18.7592 77.8982 19.0758C77.5007 19.3925 77.2097 19.8234 77.0645 20.3105C76.9193 20.7975 76.9268 21.3174 77.086 21.8C76.5773 21.8576 76.0987 22.0706 75.7153 22.4101C75.332 22.7495 75.0627 23.1988 74.944 23.6969C74.8252 24.1949 74.8629 24.7174 75.0519 25.1933C75.2409 25.6691 75.572 26.0751 76 26.356C75.5992 26.6806 75.3089 27.1215 75.1694 27.618C75.0298 28.1145 75.0478 28.6421 75.2209 29.1279C75.394 29.6138 75.7136 30.0339 76.1356 30.3304C76.5576 30.6269 77.0613 30.785 77.577 30.783C77.4735 31.2784 77.5237 31.7936 77.721 32.2596C77.9182 32.7257 78.253 33.1204 78.6806 33.391C79.1082 33.6617 79.6083 33.7953 80.1139 33.774C80.6195 33.7527 81.1066 33.5776 81.51 33.272C81.6698 33.6819 81.9385 34.0402 82.2871 34.3085C82.6357 34.5767 83.0509 34.7446 83.488 34.794C83.4077 35.0777 83.3915 35.3758 83.4406 35.6665C83.4896 35.9573 83.6027 36.2335 83.7717 36.4751C83.9406 36.7168 84.1611 36.9179 84.4173 37.0639C84.6735 37.2098 84.959 37.297 85.253 37.319C85.0942 37.655 85.0327 38.0287 85.0755 38.3979C85.1183 38.767 85.2636 39.1168 85.4951 39.4075C85.7265 39.6983 86.0347 39.9184 86.3848 40.0429C86.735 40.1674 87.113 40.1914 87.476 40.112C87.4324 40.4814 87.4932 40.8557 87.6516 41.1922C87.81 41.5288 88.0596 41.8142 88.372 42.016C88.6844 42.2179 89.0472 42.328 89.4191 42.3341C89.7911 42.3401 90.1572 42.2417 90.476 42.05C90.5438 42.4291 90.72 42.7804 90.9833 43.0615C91.2465 43.3426 91.5856 43.5414 91.9594 43.6338C92.3332 43.7263 92.7259 43.7084 93.0898 43.5825C93.4537 43.4565 93.7733 43.2278 94.01 42.924C94.2496 43.2676 94.5602 43.5556 94.9208 43.7687C95.2814 43.9817 95.6835 44.1149 96.1 44.159C96.7365 43.0092 97.1673 41.7571 97.373 40.459C97.5844 39.1373 97.3374 37.783 96.673 36.621C93.842 35.69 95.115 32.365 97.034 33.657C97.946 34.284 98.292 34.244 98.364 33.638C98.3693 33.4629 98.4219 33.2926 98.5163 33.145C98.6107 32.9974 98.7433 32.8782 98.9 32.8C99.0689 33.1564 99.3394 33.4548 99.6775 33.6578C100.015 33.8609 100.406 33.9594 100.8 33.9412C101.194 33.9229 101.574 33.7886 101.891 33.5551C102.209 33.3217 102.451 32.9995 102.586 32.629C102.77 32.8234 102.991 32.9789 103.236 33.0863C103.481 33.1938 103.745 33.2509 104.012 33.2545C104.28 33.258 104.545 33.2079 104.793 33.1069C105.041 33.006 105.266 32.8565 105.455 32.667C105.925 33.7744 106.282 34.9267 106.519 36.106C106.804 35.9453 107.046 35.717 107.222 35.4411C107.399 35.1652 107.505 34.8502 107.531 34.5238C107.557 34.1973 107.503 33.8694 107.373 33.5689C107.243 33.2683 107.041 33.0043 106.785 32.8C107.071 32.6549 107.319 32.4452 107.51 32.1874C107.701 31.9297 107.83 31.631 107.885 31.315V31.315Z"></path><path id="Vector_21" stroke="#120071" stroke-linecap="round" stroke-linejoin="round" d="M106.156 43.076L162.871 33.538"></path><path id="Vector_22" stroke="#120071" stroke-linecap="round" stroke-linejoin="round" d="M13.094 58.694L95.744 44.824"></path><path id="Vector_23" stroke="#120071" stroke-linecap="round" stroke-linejoin="round" d="M100.38 52.006L117.385 67.282"></path><path id="Vector_24" stroke="#120071" stroke-linecap="round" stroke-linejoin="round" d="M117.461 68.954C117.689 68.099 117.69 67.489 117.385 67.282C117.101 67.09 116.585 67.26 115.941 67.719C114.976 68.4809 114.103 69.3536 113.341 70.319"></path><path id="Vector_25" stroke="#120071" stroke-linecap="round" stroke-linejoin="round" d="M46.4 91.469C39.978 86.358 39.446 86.206 34.354 80.639C23.6 82.159 11.764 85.75 6.74799 88.125C14.4043 91.0179 22.6045 92.1856 30.764 91.545L39.485 99.392"></path><path id="Vector_26" stroke="#120071" stroke-linecap="round" stroke-linejoin="round" d="M94.699 52.044L112.616 68.118"></path><path id="Vector_27" stroke="#120071" stroke-linecap="round" stroke-linejoin="round" d="M103.914 81.057L92.324 71.234L99.343 82.156"></path><path id="Vector_28" stroke="#120071" stroke-linecap="round" stroke-linejoin="round" d="M145.277 83.2C145.977 83.352 152.387 85.592 153.732 87.988C154.632 89.583 150.084 86.411 147.139 86.316"></path><path id="Vector_29" stroke="#120071" stroke-linecap="round" stroke-linejoin="round" d="M144.65 85.294C146.436 85.94 150.669 87.728 151.775 89.74C152.775 91.566 149.175 88.22 144.859 88.087"></path><path id="Vector_30" stroke="#120071" stroke-linecap="round" stroke-linejoin="round" d="M144.156 87.688C148.678 90.329 151.17 92.774 145.03 90.12C141.858 88.749 118.73 88.049 118.73 88.049C116.7 87.839 114.762 87.0978 113.11 85.9L103.952 78.946"></path><path id="Vector_31" stroke="#120071" stroke-linecap="round" stroke-linejoin="round" d="M111.172 68.5551L120.482 76.8201C120.482 76.8201 143.814 81.1901 145.6 81.7001C147.386 82.2101 151.663 83.2941 152.915 84.7211C153.581 85.4801 149.915 84.1701 147.69 84.0561"></path><path id="Vector_32" stroke="#120071" stroke-linecap="round" stroke-linejoin="round" d="M112.692 69.79C112.92 68.935 112.921 68.325 112.616 68.118C112.332 67.926 111.816 68.097 111.172 68.555C108.543 70.426 104.636 76.226 103.819 79.404C103.619 80.184 103.655 80.887 103.914 81.057C104.214 81.257 105.073 81.019 105.714 80.297"></path><path id="Vector_33" stroke="#120071" stroke-linecap="round" stroke-linejoin="round" d="M74.882 87.251C79.4692 87.4442 83.9815 86.0408 87.65 83.28"></path><path id="Vector_34" stroke="#120071" stroke-linecap="round" stroke-linejoin="round" d="M99.183 82.444L101.216 78.777"></path><path id="Vector_35" stroke="#120071" stroke-linecap="round" stroke-linejoin="round" d="M100.076 50.2C98.822 52.024 96.523 51.226 93.35 48.167"></path><path id="Vector_36" stroke="#120071" stroke-linecap="round" stroke-linejoin="round" d="M79.724 110.357L94.49 93.92L78.226 120.406"></path><path id="Vector_37" stroke="#120071" stroke-linecap="round" stroke-linejoin="round" d="M56.49 119.779C57.5625 120.742 58.8142 121.485 60.1737 121.964C61.5332 122.443 62.9738 122.65 64.4132 122.572C65.8527 122.495 67.2627 122.134 68.5627 121.512C69.8628 120.889 71.0274 120.016 71.99 118.943L79.72 110.357L76.664 130.757L64.048 144.817C67.2135 150.375 72.0925 154.76 77.956 157.317L91.313 142.44C93.2903 140.241 94.6878 137.583 95.379 134.707C98.287 122.507 97.298 100.963 99.179 82.438C91.617 81.032 88.824 79.322 83.067 74.781C79.347 77.5 71.044 79.518 62.7 100.266L50.258 89.075C44.518 91.9956 40.0687 96.9459 37.775 102.964L56.49 119.779Z"></path><path id="Vector_38" stroke="#120071" stroke-linecap="round" stroke-linejoin="round" d="M101 44.319C100.497 44.1314 100.006 43.913 99.53 43.665L100.495 45.765"></path><path id="Vector_39" stroke="#120071" stroke-linecap="round" stroke-linejoin="round" d="M101.786 58.409C100.386 54.369 99.224 48.192 100.995 44.319C108.189 46.958 107.58 37.631 105.472 32.702M83.066 74.768C83.8745 72.2273 84.422 69.6108 84.7 66.959C85.184 62.8792 86.368 58.9134 88.2 55.236C89.99 51.475 94.1 48.007 96.2 44.007C96.8293 42.9081 97.229 41.6929 97.375 40.435C97.5869 39.1133 97.3398 37.7589 96.675 36.597C93.844 35.666 95.123 32.333 97.036 33.633C97.951 34.256 98.309 34.222 98.366 33.614C98.4175 33.2943 98.4816 32.9901 98.5572 32.702"></path><path id="Vector_40" stroke="#120071" stroke-linecap="round" stroke-linejoin="round" d="M68.251 140.147C71.6875 145.501 76.5784 149.765 82.351 152.44"></path><path id="Vector_41" stroke="#120071" stroke-linecap="round" stroke-linejoin="round" d="M41.917 106.631C45.109 100.831 49.099 96.067 54.343 92.761"></path><path id="Vector_42" stroke="#120071" stroke-linecap="round" stroke-linejoin="round" d="M66.313 148.26C62.299 153.16 58.708 157.006 54.799 161.085C53.754 167.26 54.248 181.434 56.243 188.027C61.543 179.211 63.463 173.606 66.143 164.527L74.275 155.483"></path><path id="Vector_43" stroke="#120071" stroke-linecap="round" stroke-linejoin="round" d="M31.182 91.925C32.9756 89.0451 35.1771 86.4403 37.718 84.192"></path><path id="Vector_44" stroke="#120071" stroke-linecap="round" stroke-linejoin="round" d="M151.775 83.888C153.846 84.097 158.06 85.388 157.285 84.496C156.722 83.9713 156.073 83.5472 155.366 83.242C152.686 81.932 150.122 81.513 147.272 80.734L125.172 75.376L115.95 67.71"></path><path id="Vector_45" stroke="#120071" stroke-linecap="round" stroke-linejoin="round" d="M81.095 86.51L64.052 111.552L47.579 98.499"></path><path id="Vector_46" stroke="#120071" stroke-linecap="round" stroke-linejoin="round" d="M127.683 29.491C127.811 30.2613 127.707 31.0522 127.385 31.7637C127.064 32.4751 126.538 33.0752 125.875 33.488C125.213 33.9008 124.442 34.1078 123.662 34.0828C122.881 34.0578 122.126 33.802 121.491 33.3476C120.856 32.8933 120.37 32.2608 120.094 31.5302C119.819 30.7997 119.766 30.0038 119.943 29.2432C120.119 28.4827 120.518 27.7916 121.087 27.2574C121.657 26.7232 122.372 26.3698 123.142 26.242C124.175 26.0712 125.234 26.3175 126.085 26.9267C126.936 27.5359 127.511 28.4582 127.683 29.491V29.491Z"></path><path id="Vector_47" stroke="#120071" stroke-linecap="round" stroke-linejoin="round" d="M138.437 27.705C138.565 28.4753 138.461 29.2662 138.139 29.9777C137.818 30.6891 137.292 31.2892 136.629 31.702C135.967 32.1148 135.196 32.3218 134.416 32.2968C133.635 32.2718 132.88 32.0159 132.245 31.5616C131.61 31.1073 131.124 30.4748 130.848 29.7442C130.573 29.0137 130.52 28.2178 130.697 27.4572C130.873 26.6967 131.272 26.0056 131.841 25.4714C132.411 24.9372 133.126 24.5838 133.896 24.456C134.929 24.2852 135.987 24.5314 136.839 25.1407C137.69 25.7499 138.265 26.6722 138.437 27.705V27.705Z"></path><path id="Vector_48" stroke="#120071" stroke-linecap="round" stroke-linejoin="round" d="M149.381 25.881C149.509 26.6513 149.405 27.4422 149.083 28.1537C148.762 28.8651 148.236 29.4652 147.573 29.878C146.911 30.2908 146.14 30.4977 145.36 30.4728C144.579 30.4478 143.824 30.1919 143.189 29.7376C142.554 29.2832 142.068 28.6508 141.792 27.9202C141.517 27.1897 141.464 26.3938 141.641 25.6332C141.817 24.8726 142.216 24.1816 142.785 23.6474C143.355 23.1132 144.07 22.7598 144.84 22.632C145.873 22.4609 146.932 22.7071 147.783 23.3163C148.635 23.9256 149.21 24.8481 149.381 25.881V25.881Z"></path><path id="Vector_49" stroke="#120071" stroke-linecap="round" stroke-linejoin="round" d="M36.293 11.973L29.035 22.195"></path><path id="Vector_50" stroke="#120071" stroke-linecap="round" stroke-linejoin="round" d="M37.775 20.713L27.572 13.455"></path><path id="Vector_51" stroke="#120071" stroke-linecap="round" stroke-linejoin="round" d="M7.47 122.154L7.242 122.23L14.253 128.443L5 138.608L9.959 143.035L19.212 132.851L26.203 139.065L31.429 114.46L7.47 122.154Z"></path><path id="Vector_52" stroke="#120071" stroke-linecap="round" stroke-linejoin="round" d="M129.83 136.176L115.124 131.616L127.493 123.028"></path><path id="Vector_53" stroke="#120071" stroke-linecap="round" stroke-linejoin="round" d="M141.914 134.238L154.188 125.156L139.577 121.071"></path><path id="Vector_54" stroke="#120071" stroke-linecap="round" stroke-linejoin="round" d="M137.316 115.656L131.939 141.838"></path><path id="Vector_55" stroke="#120071" stroke-linecap="round" stroke-linejoin="round" d="M18.3615 91.1172L28.218 151.889C28.5702 153.962 29.3274 155.945 30.4463 157.724C31.5653 159.504 33.024 161.046 34.7391 162.262C36.4542 163.477 38.3921 164.343 40.442 164.81C42.492 165.276 44.6137 165.334 46.686 164.98L54.5883 163.651"></path><path id="Vector_56" stroke="#120071" stroke-linecap="round" stroke-linejoin="round" d="M172.087 90.4545L177.957 126.638C178.311 128.71 178.253 130.832 177.787 132.882C177.32 134.932 176.454 136.87 175.239 138.585C174.023 140.3 172.481 141.759 170.701 142.878C168.921 143.997 166.939 144.754 164.866 145.106L69.1768 161.198"></path><path id="Vector_57" stroke="#120071" stroke-linecap="round" stroke-linejoin="round" d="M75.2449 27.4766L25.482 35.837C23.4094 36.1893 21.4265 36.9465 19.6467 38.0654C17.8669 39.1843 16.3251 40.643 15.1093 42.3582C13.8936 44.0733 13.0277 46.0112 12.5613 48.0611C12.0949 50.111 12.037 52.2328 12.391 54.305L17.2654 84.3588"></path><path id="Vector_58" stroke="#120071" stroke-linecap="round" stroke-linejoin="round" d="M103.211 22.7781L143.662 15.982C145.734 15.628 147.856 15.6859 149.906 16.1523C151.956 16.6187 153.894 17.4846 155.609 18.7003C157.324 19.9161 158.783 21.4579 159.902 23.2377C161.021 25.0175 161.778 27.0004 162.13 29.073L169.631 75.3155"></path><path id="Vector_59" stroke="#120071" stroke-linecap="round" stroke-linejoin="round" d="M58.618 157.057C60.7108 159.932 63.251 162.453 66.142 164.524"></path></g></g></svg>